<svg width="80" height="86" viewBox="0 0 80 86" fill="none" xmlns="http://www.w3.org/2000/svg">
<path d="M62.6679 23.0173C63.7049 23.022 64.6995 23.43 65.4409 24.1552C66.1823 24.8803 66.6124 25.8654 66.6402 26.9021C66.6402 28.5386 64.654 30.8695 64.654 30.8695C63.4886 33.0159 65.97 33.0159 65.97 33.0159H78.3821V6.02594C78.3808 4.81956 77.901 3.66296 77.048 2.80993C76.195 1.95689 75.0384 1.47708 73.832 1.4758H46.9586V13.985C46.9586 13.985 47.0071 15.4418 45.6911 15.2573C45.4352 15.2165 45.1933 15.113 44.987 14.9562C44.0789 14.2812 40.2718 11.9649 38.1448 14.898C37.6302 15.6029 37.3528 16.4532 37.3528 17.326C37.3528 18.1988 37.6302 19.049 38.1448 19.754C40.2718 22.6288 44.0643 20.2396 44.9724 19.5598C45.1773 19.3996 45.4197 19.2943 45.6766 19.2538C46.9925 19.0693 46.944 20.5261 46.944 20.5261V33.0305H59.3561C59.3561 33.0305 61.8375 33.0305 60.6721 30.8841C60.6721 30.8841 58.6859 28.5532 58.6859 26.9167C58.6891 26.3985 58.7948 25.8861 58.9971 25.4091C59.1993 24.932 59.4941 24.4997 59.8643 24.1372C60.2345 23.7746 60.6729 23.489 61.1541 23.2968C61.6353 23.1046 62.1498 23.0096 62.6679 23.0173Z" stroke="#9B9BF2" stroke-width="1.69962" stroke-miterlimit="10"/>
<path d="M32.8903 84.9903H6.99785C5.53092 84.9903 4.12408 84.4075 3.0868 83.3703C2.04953 82.333 1.4668 80.9261 1.4668 79.4592V53.4502H13.8789C13.8789 53.4502 16.3603 53.4502 15.1949 55.5965C15.1949 55.5965 13.2087 57.9275 13.2087 59.5688C13.2087 60.621 13.6267 61.6301 14.3708 62.3742C15.1148 63.1182 16.1239 63.5362 17.1761 63.5362C18.2284 63.5362 19.2375 63.1182 19.9815 62.3742C20.7256 61.6301 21.1435 60.621 21.1435 59.5688C21.1435 57.9275 19.1623 55.5965 19.1623 55.5965C17.9968 53.4502 20.4783 53.4502 20.4783 53.4502H32.8903V65.9545C32.8903 65.9545 32.9341 67.4113 31.6229 67.2317C31.3666 67.1892 31.1247 67.0841 30.9188 66.9257C30.0107 66.2556 26.2036 63.9393 24.0766 66.8675C23.562 67.5724 23.2846 68.4227 23.2846 69.2955C23.2846 70.1683 23.562 71.0186 24.0766 71.7235C26.1987 74.5983 29.9961 72.2091 30.9042 71.5293C31.1094 71.3705 31.3518 71.2668 31.6083 71.2282C32.9195 71.0437 32.8758 72.5005 32.8758 72.5005L32.8903 84.9903Z" stroke="#9B9BF2" stroke-width="1.69962" stroke-miterlimit="10"/>
<path d="M1.4668 53.4259V27.1547C1.4668 25.7882 2.00962 24.4777 2.97586 23.5114C3.9421 22.5452 5.25261 22.0024 6.61907 22.0024H32.8903V34.4145C32.8903 34.4145 32.8903 36.8959 30.7537 35.7256C30.7537 35.7256 28.4325 33.7443 26.8009 33.7443C25.7646 33.7708 24.7794 34.1999 24.0542 34.9405C23.329 35.6812 22.9207 36.6752 22.916 37.7117C22.9096 38.2278 23.0051 38.7401 23.1969 39.2192C23.3888 39.6983 23.6734 40.1349 24.0342 40.5039C24.3951 40.8729 24.8252 41.1671 25.3 41.3696C25.7747 41.5721 26.2848 41.6789 26.8009 41.684C28.4325 41.684 30.7537 39.6979 30.7537 39.6979C32.8903 38.5324 32.8903 41.009 32.8903 41.009V53.4259" stroke="#9B9BF2" stroke-width="1.69962" stroke-miterlimit="10"/>
<path d="M32.8906 53.3822L45.3221 53.4308C45.3221 53.4308 46.7789 53.4745 46.5993 52.1634C46.5564 51.9065 46.4532 51.6636 46.2982 51.4544C45.6232 50.5511 43.2243 46.7537 46.0991 44.6268C46.8046 44.1135 47.6547 43.8371 48.5271 43.8371C49.3996 43.8371 50.2496 44.1135 50.9552 44.6268C53.8688 46.7537 51.5622 50.556 50.892 51.4592C50.7298 51.6647 50.6243 51.9092 50.5861 52.1682C50.4016 53.4793 51.8584 53.4356 51.8584 53.4356H64.3239V80.144C64.3239 81.4319 63.8123 82.667 62.9016 83.5777C61.9909 84.4884 60.7557 85 59.4678 85H32.8906" stroke="#9B9BF2" stroke-width="1.69962" stroke-miterlimit="10"/>
</svg>
