<svg width="1920" height="531" viewBox="0 0 1920 531" fill="none" xmlns="http://www.w3.org/2000/svg">
<g opacity="0.6">
<mask id="mask0_77_716" style="mask-type:alpha" maskUnits="userSpaceOnUse" x="0" y="0" width="1920" height="531">
<rect width="1920" height="531" fill="#161623" fill-opacity="0.2"/>
</mask>
<g mask="url(#mask0_77_716)">
<path d="M1651.82 155.132L1608.25 130.059V79.6781L1651.72 54.5659H1651.82L1695.29 79.6781V130.059H1695.2L1651.82 155.132ZM1608.62 129.766L1651.82 154.702L1695 129.766V79.8928L1651.82 54.9562L1608.62 79.8928V129.766Z" fill="#95B9FF"/>
<path d="M1738.57 155.132H1738.47L1695 130.059V79.6781H1695.1L1738.57 54.5659H1738.67L1782.14 79.6781V130.059L1738.57 155.132ZM1695.39 129.766L1738.57 154.702L1781.77 129.766V79.8928L1738.57 54.9562L1695.39 79.8928V129.766Z" fill="#95B9FF"/>
<path d="M1825.32 155.132L1781.77 130.059V79.6781H1781.87L1825.32 54.5659H1825.42L1868.89 79.6781V130.059H1868.8L1825.32 155.132ZM1782.14 129.766L1825.32 154.702L1868.52 129.766V79.8928L1825.32 54.9562L1782.14 79.8928V129.766Z" fill="#95B9FF"/>
<path d="M1912.11 155.132H1912.02L1868.52 130.059V79.678L1912.11 54.5073H1912.21L1955.68 79.6195V130.059H1955.59L1912.11 155.132ZM1868.91 129.766L1912.11 154.702L1955.29 129.766V79.8927L1912.11 54.9561L1868.91 79.8927V129.766Z" fill="#95B9FF"/>
<path d="M1695.2 230.254H1695.1L1651.62 205.102V154.8H1651.72L1695.2 129.707L1738.67 154.8V205.102L1695.2 230.254ZM1652.01 204.888L1695.2 229.824L1738.45 204.888V155.015L1695.2 130.059L1652.01 155.015V204.888Z" fill="#95B9FF"/>
<path d="M1781.95 230.254L1738.45 205.102V154.8L1781.93 129.707H1782.02L1825.5 154.8V205.102H1825.4L1781.95 230.254ZM1738.77 204.888L1781.95 229.824L1825.15 204.888V155.015L1781.95 130.059L1738.77 154.995V204.888Z" fill="#95B9FF"/>
<path d="M1868.72 230.254H1868.62L1825.15 205.142V154.8H1825.24L1868.72 129.707L1912.19 154.8V205.102L1868.72 230.254ZM1825.52 204.888L1868.72 229.824L1911.9 204.888V155.015L1868.72 130.059L1825.52 154.995V204.888Z" fill="#95B9FF"/>
<path d="M1955.47 230.254H1955.37L1911.9 205.142V154.8H1912L1955.47 129.707L1998.94 154.8V205.102H1998.84L1955.47 230.254ZM1912.27 204.888L1955.47 229.824L1998.65 204.888V155.015L1955.47 130.059L1912.27 154.995V204.888Z" fill="#95B9FF"/>
<path d="M1825.32 305.395L1781.77 280.303V229.942H1781.87L1825.32 204.849H1825.42L1868.89 229.961V280.303H1868.8L1825.32 305.395ZM1782.14 280.029L1825.32 304.966L1868.52 280.029V230.156L1825.32 205.22L1782.14 230.156V280.029Z" fill="#95B9FF"/>
<path d="M1912.11 305.395H1912.02L1868.52 280.302V229.942L1912.11 204.79H1912.21L1955.68 229.903V280.302H1955.59L1912.11 305.395ZM1868.91 280.029L1912.11 304.966L1955.29 280.029V230.156L1912.11 205.22L1868.89 230.156L1868.91 280.029Z" fill="#95B9FF"/>
<path d="M1868.72 380.537H1868.62L1825.15 355.444V305.063H1825.24L1868.72 279.971L1912.19 305.063V355.385L1868.72 380.537ZM1825.52 355.171L1868.72 380.107L1911.9 355.171V305.278L1868.72 280.302L1825.52 305.278V355.171Z" fill="#95B9FF"/>
<path d="M1955.47 380.537H1955.37L1911.9 355.444V305.063H1912L1955.47 279.971L1998.94 305.063V355.385H1998.84L1955.47 380.537ZM1912.27 355.171L1955.47 380.107L1998.65 355.171V305.278L1955.47 280.302L1912.27 305.278V355.171Z" fill="#95B9FF"/>
<path d="M1912.11 455.659H1912.02L1868.52 430.546V380.205L1912.11 355.054H1912.21L1955.68 380.146V430.546H1955.59L1912.11 455.659ZM1868.91 430.293L1912.11 455.229L1955.29 430.293V380.42L1912.11 355.483L1868.91 380.42V430.293Z" fill="#95B9FF"/>
<path d="M1812.05 -26V16.6732L1756.5 48.7512L1700.95 16.6732V-26H1699V17.8049L1756.5 51.0146L1814.03 17.8049V-26H1812.05Z" fill="#95B9FF"/>
<path d="M1925.13 -26V16.6732L1869.58 48.7512L1814.02 16.6732V-26H1812.05V17.8049L1869.58 51.0146L1927.1 17.8049V-26H1925.13Z" fill="#95B9FF"/>
<path d="M1813.03 148.947L1755.53 115.776V49.4344L1813.03 16.2637L1870.55 49.4344V115.776L1813.03 148.947ZM1757.48 114.605L1813.03 146.664L1868.58 114.605V50.4491L1813.03 18.371L1757.48 50.4491V114.605Z" fill="#95B9FF"/>
<path d="M1926.1 148.947L1868.58 115.776V49.4344L1926.1 16.2637L1983.62 49.4344V115.776L1926.1 148.947ZM1870.55 114.605L1926.1 146.664L1981.65 114.605V50.4491L1926.1 18.371L1870.55 50.4491V114.605Z" fill="#95B9FF"/>
<path d="M1869.58 246.858L1812.05 213.687V147.346L1869.58 114.175L1927.08 147.346V213.687L1869.58 246.858ZM1814.02 212.517L1869.58 244.595L1925.13 212.517V148.38L1869.58 116.4L1814.02 148.478V212.517Z" fill="#95B9FF"/>
<path d="M1926.1 540.615L1868.58 507.444V441.103L1926.1 407.932L1983.62 441.103V507.444L1926.1 540.615ZM1870.55 506.273L1926.1 538.351L1981.65 506.273V442.137L1926.1 410.059L1870.55 442.137V506.273Z" fill="#95B9FF"/>
<path d="M1865.65 634L1814.02 604.185V540.049L1869.58 507.971L1925.13 540.049V604.185L1873.5 634H1877.42L1927.1 605.336V538.917L1869.58 505.707L1812.05 538.917V605.336L1861.73 634H1865.65Z" fill="#95B9FF"/>
<path d="M1565.07 55.268C1565.21 55.2632 1565.34 55.2061 1565.44 55.1083C1565.53 55.0106 1565.59 54.8793 1565.6 54.7412C1565.6 54.6014 1565.54 54.4674 1565.44 54.3686C1565.34 54.2698 1565.21 54.2144 1565.07 54.2144C1564.93 54.2144 1564.79 54.2698 1564.7 54.3686C1564.6 54.4674 1564.54 54.6014 1564.54 54.7412C1564.55 54.8793 1564.6 55.0106 1564.7 55.1083C1564.8 55.2061 1564.93 55.2632 1565.07 55.268Z" fill="#95B9FF"/>
<path d="M1608.44 73.8047C1607.26 73.8009 1606.1 74.1494 1605.11 74.8061C1604.12 75.4628 1603.35 76.3982 1602.89 77.4936C1602.44 78.5889 1602.32 79.7949 1602.55 80.9588C1602.78 82.1226 1603.35 83.1917 1604.19 84.0306C1605.03 84.8696 1606.1 85.4405 1607.26 85.671C1608.42 85.9015 1609.63 85.7812 1610.73 85.3254C1611.82 84.8696 1612.76 84.0988 1613.41 83.1108C1614.07 82.1227 1614.42 80.9619 1614.41 79.7754C1614.41 78.1919 1613.79 76.6732 1612.67 75.5535C1611.55 74.4338 1610.03 73.8047 1608.44 73.8047Z" fill="#95B9FF"/>
<path d="M1608.44 133.61C1609.19 133.61 1609.91 133.39 1610.53 132.978C1611.14 132.567 1611.62 131.982 1611.91 131.297C1612.19 130.612 1612.26 129.859 1612.12 129.132C1611.97 128.406 1611.62 127.738 1611.09 127.214C1610.57 126.69 1609.9 126.333 1609.18 126.189C1608.45 126.044 1607.7 126.119 1607.01 126.402C1606.33 126.686 1605.74 127.166 1605.33 127.782C1604.92 128.398 1604.7 129.122 1604.7 129.863C1604.7 130.355 1604.8 130.842 1604.98 131.297C1605.17 131.751 1605.45 132.164 1605.8 132.512C1606.14 132.86 1606.56 133.136 1607.01 133.324C1607.47 133.513 1607.95 133.61 1608.44 133.61Z" fill="#95B9FF"/>
<path d="M1651.82 158.273C1652.49 158.273 1653.14 158.075 1653.7 157.703C1654.25 157.331 1654.69 156.803 1654.94 156.185C1655.2 155.567 1655.26 154.887 1655.13 154.232C1655 153.576 1654.67 152.975 1654.2 152.504C1653.73 152.032 1653.12 151.712 1652.47 151.584C1651.81 151.456 1651.13 151.526 1650.51 151.784C1649.9 152.043 1649.37 152.479 1649 153.036C1648.64 153.594 1648.44 154.248 1648.44 154.917C1648.45 155.809 1648.81 156.662 1649.44 157.291C1650.07 157.92 1650.93 158.273 1651.82 158.273Z" fill="#95B9FF"/>
<path d="M1651.82 56.4585C1652.78 56.4585 1653.56 55.681 1653.56 54.7219C1653.56 53.7628 1652.78 52.9854 1651.82 52.9854C1650.86 52.9854 1650.08 53.7628 1650.08 54.7219C1650.08 55.681 1650.86 56.4585 1651.82 56.4585Z" fill="#95B9FF"/>
<path d="M1695.2 83.2291C1695.88 83.2291 1696.54 83.0277 1697.1 82.6504C1697.67 82.273 1698.11 81.7367 1698.37 81.1091C1698.63 80.4816 1698.7 79.7912 1698.56 79.125C1698.43 78.4588 1698.1 77.8469 1697.62 77.3666C1697.14 76.8864 1696.53 76.5593 1695.87 76.4268C1695.2 76.2943 1694.51 76.3623 1693.88 76.6223C1693.25 76.8822 1692.72 77.3223 1692.34 77.8871C1691.96 78.4518 1691.76 79.1157 1691.76 79.795C1691.76 80.7057 1692.12 81.5792 1692.77 82.2233C1693.41 82.8673 1694.29 83.2291 1695.2 83.2291Z" fill="#95B9FF"/>
<path d="M1695.2 123.834C1694 123.834 1692.84 124.188 1691.85 124.85C1690.85 125.513 1690.08 126.454 1689.63 127.556C1689.17 128.658 1689.05 129.87 1689.28 131.04C1689.51 132.209 1690.09 133.284 1690.93 134.127C1691.78 134.97 1692.85 135.544 1694.02 135.777C1695.19 136.01 1696.4 135.89 1697.5 135.434C1698.6 134.977 1699.55 134.205 1700.21 133.213C1700.87 132.222 1701.23 131.056 1701.23 129.863C1701.22 128.266 1700.58 126.735 1699.45 125.606C1698.32 124.476 1696.79 123.839 1695.2 123.834Z" fill="#95B9FF"/>
<path d="M1738.57 57.2781C1739.08 57.282 1739.58 57.1349 1740 56.8555C1740.42 56.5761 1740.75 56.1771 1740.95 55.7093C1741.14 55.2414 1741.2 54.7258 1741.1 54.2282C1741 53.7305 1740.76 53.2733 1740.4 52.9146C1740.04 52.556 1739.58 52.3122 1739.08 52.2142C1738.59 52.1162 1738.07 52.1684 1737.6 52.3643C1737.14 52.5602 1736.74 52.8908 1736.46 53.3141C1736.18 53.7375 1736.03 54.2343 1736.03 54.7415C1736.03 55.4143 1736.3 56.0595 1736.78 56.5352C1737.25 57.0109 1737.9 57.2781 1738.57 57.2781Z" fill="#95B9FF"/>
<path d="M1781.95 84.4586C1782.87 84.4586 1783.78 84.184 1784.55 83.6694C1785.32 83.1548 1785.92 82.4234 1786.27 81.5678C1786.63 80.7121 1786.72 79.7705 1786.54 78.8621C1786.36 77.9537 1785.91 77.1192 1785.26 76.4643C1784.6 75.8094 1783.77 75.3635 1782.86 75.1828C1781.95 75.0021 1781.01 75.0948 1780.15 75.4492C1779.3 75.8037 1778.57 76.4039 1778.05 77.174C1777.54 77.9441 1777.26 78.8495 1777.26 79.7757C1777.26 80.3914 1777.38 81.0015 1777.62 81.5708C1777.85 82.1401 1778.19 82.6574 1778.63 83.0927C1779.07 83.5281 1779.58 83.873 1780.15 84.1074C1780.72 84.3418 1781.33 84.4612 1781.95 84.4586Z" fill="#95B9FF"/>
<path d="M1781.97 135.444C1785.05 135.444 1787.55 132.945 1787.55 129.863C1787.55 126.781 1785.05 124.283 1781.97 124.283C1778.88 124.283 1776.39 126.781 1776.39 129.863C1776.39 132.945 1778.88 135.444 1781.97 135.444Z" fill="#95B9FF"/>
<path d="M1825.32 57.6487C1825.9 57.641 1826.46 57.4623 1826.94 57.1352C1827.42 56.8081 1827.79 56.3471 1828 55.8106C1828.21 55.274 1828.27 54.6858 1828.15 54.1201C1828.03 53.5544 1827.74 53.0367 1827.33 52.632C1826.92 52.2274 1826.4 51.954 1825.83 51.8464C1825.26 51.7388 1824.67 51.8018 1824.14 52.0275C1823.61 52.2531 1823.16 52.6312 1822.84 53.1142C1822.52 53.5972 1822.35 54.1633 1822.36 54.7413C1822.36 55.1274 1822.44 55.5091 1822.59 55.8645C1822.74 56.2199 1822.96 56.542 1823.23 56.8122C1823.51 57.0824 1823.84 57.2955 1824.19 57.439C1824.55 57.5826 1824.94 57.6539 1825.32 57.6487Z" fill="#95B9FF"/>
<path d="M1868.72 83.2292C1869.38 83.2254 1870.03 83.0253 1870.58 82.6542C1871.13 82.2831 1871.55 81.7576 1871.8 81.144C1872.06 80.5304 1872.12 79.8563 1871.99 79.2065C1871.86 78.5568 1871.53 77.9606 1871.06 77.4932C1870.59 77.0258 1870 76.7081 1869.35 76.5802C1868.7 76.4522 1868.02 76.5198 1867.41 76.7744C1866.8 77.029 1866.27 77.4592 1865.91 78.0107C1865.54 78.5621 1865.34 79.2102 1865.34 79.8731C1865.34 80.3155 1865.43 80.7535 1865.6 81.162C1865.77 81.5704 1866.02 81.9413 1866.33 82.2532C1866.65 82.5651 1867.02 82.8119 1867.43 82.9794C1867.84 83.1469 1868.28 83.2318 1868.72 83.2292Z" fill="#95B9FF"/>
<path d="M1868.72 132.263C1870.04 132.263 1871.12 131.189 1871.12 129.863C1871.12 128.538 1870.04 127.463 1868.72 127.463C1867.39 127.463 1866.32 128.538 1866.32 129.863C1866.32 131.189 1867.39 132.263 1868.72 132.263Z" fill="#95B9FF"/>
<path d="M1912.11 56.9853C1912.56 56.9853 1913 56.8521 1913.37 56.6025C1913.74 56.3529 1914.03 55.9983 1914.21 55.5835C1914.38 55.1688 1914.42 54.7127 1914.33 54.2732C1914.24 53.8336 1914.02 53.4303 1913.71 53.1146C1913.39 52.7988 1912.98 52.5847 1912.54 52.4996C1912.1 52.4145 1911.65 52.4622 1911.23 52.6365C1910.82 52.8108 1910.47 53.1039 1910.22 53.4787C1909.97 53.8535 1909.84 54.293 1909.85 54.7414C1909.85 55.0378 1909.91 55.3312 1910.02 55.6047C1910.14 55.8782 1910.3 56.1265 1910.51 56.3351C1910.72 56.5437 1910.97 56.7086 1911.25 56.8202C1911.52 56.9318 1911.82 56.9879 1912.11 56.9853Z" fill="#95B9FF"/>
<path d="M1651.82 209.531C1652.72 209.531 1653.59 209.266 1654.34 208.768C1655.08 208.271 1655.66 207.564 1656 206.737C1656.35 205.91 1656.43 204.999 1656.26 204.121C1656.09 203.243 1655.65 202.437 1655.02 201.804C1654.39 201.17 1653.58 200.739 1652.7 200.565C1651.83 200.39 1650.92 200.48 1650.09 200.822C1649.26 201.165 1648.55 201.745 1648.06 202.489C1647.56 203.234 1647.29 204.109 1647.29 205.004C1647.29 206.205 1647.77 207.356 1648.62 208.205C1649.47 209.054 1650.62 209.531 1651.82 209.531Z" fill="#95B9FF"/>
<path d="M1738.57 152.595C1738.11 152.595 1737.66 152.731 1737.28 152.986C1736.9 153.241 1736.6 153.604 1736.43 154.028C1736.25 154.452 1736.2 154.919 1736.29 155.37C1736.38 155.82 1736.6 156.234 1736.93 156.559C1737.25 156.883 1737.67 157.105 1738.12 157.194C1738.57 157.284 1739.04 157.238 1739.46 157.062C1739.88 156.886 1740.25 156.589 1740.5 156.207C1740.76 155.825 1740.89 155.376 1740.89 154.917C1740.9 154.611 1740.84 154.308 1740.72 154.025C1740.61 153.742 1740.43 153.485 1740.22 153.269C1740 153.053 1739.75 152.882 1739.46 152.766C1739.18 152.651 1738.88 152.592 1738.57 152.595Z" fill="#95B9FF"/>
<path d="M1738.57 209.297C1739.42 209.297 1740.25 209.046 1740.96 208.574C1741.66 208.102 1742.21 207.432 1742.54 206.647C1742.86 205.863 1742.95 205 1742.78 204.167C1742.62 203.335 1742.21 202.57 1741.61 201.969C1741.01 201.369 1740.24 200.96 1739.41 200.795C1738.58 200.629 1737.71 200.714 1736.93 201.039C1736.14 201.364 1735.47 201.914 1735 202.62C1734.53 203.326 1734.28 204.156 1734.28 205.005C1734.28 206.143 1734.73 207.235 1735.54 208.04C1736.34 208.845 1737.43 209.297 1738.57 209.297Z" fill="#95B9FF"/>
<path d="M1781.97 232.751C1783.46 232.751 1784.68 231.537 1784.68 230.039C1784.68 228.541 1783.46 227.327 1781.97 227.327C1780.47 227.327 1779.25 228.541 1779.25 230.039C1779.25 231.537 1780.47 232.751 1781.97 232.751Z" fill="#95B9FF"/>
<path d="M1825.32 148.576C1824.07 148.576 1822.84 148.948 1821.8 149.644C1820.76 150.341 1819.94 151.332 1819.46 152.49C1818.98 153.649 1818.86 154.924 1819.1 156.154C1819.35 157.384 1819.95 158.514 1820.84 159.401C1821.72 160.288 1822.85 160.892 1824.09 161.137C1825.32 161.381 1826.59 161.256 1827.75 160.776C1828.91 160.296 1829.9 159.483 1830.59 158.44C1831.29 157.397 1831.66 156.171 1831.66 154.917C1831.67 154.084 1831.5 153.258 1831.19 152.487C1830.87 151.717 1830.4 151.017 1829.81 150.427C1829.22 149.838 1828.52 149.371 1827.75 149.053C1826.98 148.735 1826.16 148.573 1825.32 148.576Z" fill="#95B9FF"/>
<path d="M1912.11 159.62C1913.04 159.62 1913.95 159.344 1914.73 158.827C1915.5 158.31 1916.1 157.576 1916.46 156.717C1916.81 155.857 1916.91 154.912 1916.73 154C1916.54 153.088 1916.1 152.25 1915.44 151.592C1914.78 150.934 1913.94 150.487 1913.03 150.305C1912.12 150.124 1911.17 150.217 1910.31 150.573C1909.45 150.929 1908.72 151.531 1908.2 152.305C1907.69 153.078 1907.41 153.987 1907.41 154.917C1907.41 155.535 1907.53 156.146 1907.77 156.717C1908 157.287 1908.35 157.806 1908.79 158.242C1909.22 158.679 1909.74 159.025 1910.31 159.262C1910.88 159.498 1911.5 159.62 1912.11 159.62Z" fill="#95B9FF"/>
<path d="M1912.11 210.527C1913.2 210.527 1914.27 210.203 1915.18 209.596C1916.09 208.99 1916.8 208.127 1917.21 207.118C1917.63 206.109 1917.74 204.999 1917.53 203.928C1917.31 202.857 1916.79 201.873 1916.02 201.1C1915.24 200.328 1914.26 199.802 1913.19 199.589C1912.12 199.376 1911.01 199.485 1910 199.903C1908.99 200.321 1908.13 201.029 1907.52 201.937C1906.91 202.845 1906.59 203.913 1906.59 205.005C1906.59 206.47 1907.17 207.874 1908.21 208.91C1909.24 209.945 1910.65 210.527 1912.11 210.527Z" fill="#95B9FF"/>
<path d="M1698.8 230.039C1698.8 229.325 1698.59 228.627 1698.2 228.034C1697.8 227.44 1697.24 226.977 1696.58 226.704C1695.92 226.431 1695.19 226.36 1694.49 226.499C1693.79 226.638 1693.15 226.982 1692.64 227.487C1692.14 227.992 1691.79 228.635 1691.65 229.335C1691.52 230.035 1691.59 230.761 1691.86 231.421C1692.13 232.08 1692.6 232.644 1693.19 233.041C1693.78 233.437 1694.48 233.649 1695.2 233.649C1695.67 233.652 1696.14 233.56 1696.58 233.379C1697.02 233.199 1697.42 232.933 1697.75 232.597C1698.09 232.262 1698.35 231.863 1698.54 231.424C1698.72 230.985 1698.81 230.514 1698.8 230.039Z" fill="#95B9FF"/>
<path d="M1825.34 207.912C1826.95 207.912 1828.25 206.61 1828.25 205.005C1828.25 203.399 1826.95 202.097 1825.34 202.097C1823.74 202.097 1822.43 203.399 1822.43 205.005C1822.43 206.61 1823.74 207.912 1825.34 207.912Z" fill="#95B9FF"/>
<path d="M1868.72 233.161C1869.34 233.161 1869.94 232.978 1870.45 232.635C1870.97 232.292 1871.37 231.804 1871.6 231.234C1871.84 230.663 1871.9 230.036 1871.78 229.43C1871.66 228.825 1871.36 228.268 1870.93 227.832C1870.49 227.395 1869.93 227.098 1869.33 226.977C1868.72 226.857 1868.09 226.919 1867.52 227.155C1866.95 227.391 1866.46 227.791 1866.12 228.305C1865.78 228.818 1865.6 229.422 1865.6 230.039C1865.6 230.449 1865.68 230.855 1865.83 231.234C1865.99 231.613 1866.22 231.957 1866.51 232.247C1866.8 232.537 1867.14 232.767 1867.52 232.923C1867.9 233.08 1868.31 233.161 1868.72 233.161Z" fill="#95B9FF"/>
<path d="M1781.95 275.502C1781.03 275.502 1780.13 275.775 1779.36 276.287C1778.6 276.798 1778.01 277.524 1777.65 278.374C1777.3 279.224 1777.21 280.158 1777.39 281.06C1777.57 281.961 1778.02 282.788 1778.67 283.437C1779.32 284.086 1780.15 284.527 1781.05 284.703C1781.95 284.88 1782.89 284.786 1783.74 284.431C1784.59 284.077 1785.31 283.478 1785.82 282.712C1786.33 281.946 1786.59 281.046 1786.59 280.127C1786.59 279.518 1786.47 278.915 1786.24 278.353C1786 277.79 1785.66 277.28 1785.23 276.85C1784.8 276.42 1784.29 276.08 1783.72 275.849C1783.16 275.618 1782.56 275.5 1781.95 275.502Z" fill="#95B9FF"/>
<path d="M1820.52 305.18C1820.52 306.134 1820.81 307.067 1821.34 307.86C1821.87 308.653 1822.62 309.271 1823.5 309.635C1824.38 309.999 1825.35 310.093 1826.29 309.906C1827.22 309.718 1828.08 309.257 1828.76 308.581C1829.43 307.905 1829.89 307.045 1830.07 306.109C1830.25 305.172 1830.16 304.203 1829.79 303.323C1829.42 302.442 1828.8 301.691 1828.01 301.164C1827.21 300.636 1826.28 300.357 1825.32 300.361C1824.05 300.366 1822.83 300.876 1821.93 301.779C1821.03 302.683 1820.52 303.906 1820.52 305.18Z" fill="#95B9FF"/>
<path d="M1868.72 383.21C1870.32 383.21 1871.62 381.908 1871.62 380.302C1871.62 378.697 1870.32 377.395 1868.72 377.395C1867.11 377.395 1865.81 378.697 1865.81 380.302C1865.81 381.908 1867.11 383.21 1868.72 383.21Z" fill="#95B9FF"/>
<path d="M1825.34 359.053C1827.43 359.053 1829.13 357.359 1829.13 355.268C1829.13 353.178 1827.43 351.483 1825.34 351.483C1823.25 351.483 1821.56 353.178 1821.56 355.268C1821.56 357.359 1823.25 359.053 1825.34 359.053Z" fill="#95B9FF"/>
<path d="M1868.72 284.166C1870.95 284.166 1872.76 282.358 1872.76 280.127C1872.76 277.896 1870.95 276.088 1868.72 276.088C1866.49 276.088 1864.68 277.896 1864.68 280.127C1864.68 282.358 1866.49 284.166 1868.72 284.166Z" fill="#95B9FF"/>
<path d="M1912.11 310.858C1913.24 310.858 1914.33 310.525 1915.27 309.902C1916.2 309.278 1916.93 308.391 1917.36 307.353C1917.79 306.316 1917.9 305.174 1917.68 304.073C1917.46 302.971 1916.92 301.96 1916.13 301.165C1915.33 300.371 1914.32 299.831 1913.22 299.612C1912.12 299.392 1910.98 299.505 1909.94 299.935C1908.9 300.364 1908.02 301.092 1907.39 302.026C1906.77 302.96 1906.43 304.057 1906.43 305.18C1906.43 306.686 1907.03 308.131 1908.1 309.195C1909.16 310.26 1910.61 310.858 1912.11 310.858Z" fill="#95B9FF"/>
<path d="M1868.72 527.912C1868.19 527.912 1867.67 528.069 1867.23 528.363C1866.79 528.656 1866.45 529.074 1866.25 529.562C1866.05 530.051 1865.99 530.588 1866.1 531.107C1866.2 531.625 1866.45 532.102 1866.83 532.475C1867.2 532.849 1867.68 533.104 1868.2 533.207C1868.71 533.31 1869.25 533.257 1869.74 533.055C1870.23 532.853 1870.65 532.51 1870.94 532.07C1871.23 531.631 1871.39 531.114 1871.39 530.585C1871.39 529.876 1871.11 529.196 1870.61 528.695C1870.11 528.194 1869.43 527.912 1868.72 527.912Z" fill="#95B9FF"/>
<path d="M1868.72 433.532C1869.34 433.536 1869.95 433.354 1870.47 433.01C1870.99 432.667 1871.4 432.176 1871.64 431.601C1871.88 431.027 1871.94 430.393 1871.82 429.782C1871.7 429.171 1871.4 428.609 1870.96 428.169C1870.52 427.728 1869.96 427.429 1869.35 427.308C1868.73 427.188 1868.1 427.252 1867.53 427.492C1866.95 427.732 1866.46 428.138 1866.12 428.657C1865.77 429.177 1865.59 429.787 1865.6 430.41C1865.6 430.82 1865.68 431.226 1865.83 431.604C1865.99 431.983 1866.22 432.327 1866.51 432.617C1866.8 432.907 1867.14 433.137 1867.52 433.294C1867.9 433.451 1868.31 433.532 1868.72 433.532Z" fill="#95B9FF"/>
<path d="M1912.11 449.336C1910.9 449.333 1909.72 449.688 1908.71 450.356C1907.71 451.025 1906.92 451.977 1906.46 453.093C1905.99 454.209 1905.87 455.437 1906.1 456.623C1906.33 457.809 1906.91 458.899 1907.77 459.755C1908.62 460.611 1909.71 461.195 1910.89 461.432C1912.08 461.669 1913.31 461.55 1914.43 461.088C1915.54 460.626 1916.5 459.844 1917.17 458.839C1917.84 457.834 1918.2 456.653 1918.2 455.444C1918.2 453.827 1917.56 452.277 1916.42 451.132C1915.28 449.987 1913.73 449.342 1912.11 449.336Z" fill="white"/>
<path d="M1912.09 361.005C1915.26 361.005 1917.83 358.436 1917.83 355.268C1917.83 352.1 1915.26 349.532 1912.09 349.532C1908.93 349.532 1906.36 352.1 1906.36 355.268C1906.36 358.436 1908.93 361.005 1912.09 361.005Z" fill="white"/>
<g style="mix-blend-mode:multiply" opacity="0.2">
<path d="M1700.4 -26V26.9951L1647.68 57.4341L1594.98 26.9951V-26H1594.51V27.2683L1647.57 57.9024L1647.68 57.961L1700.76 27.3268L1700.85 27.2683V-26H1700.4Z" fill="#95B9FF"/>
<path d="M1806.3 -26V26.9951L1753.58 57.4341L1700.85 26.9951V-26H1700.41V27.2683L1753.46 57.9024L1753.58 57.961L1806.65 27.3268L1806.75 27.2683V-26H1806.3Z" fill="#95B9FF"/>
<path d="M1912.19 -26V26.9951L1859.47 57.4341L1806.75 26.9951V-26H1806.3V27.2683L1859.35 57.9024L1859.47 57.961L1912.52 27.3268L1912.64 27.2683V-26H1912.19Z" fill="#95B9FF"/>
<path d="M1912.64 26.9951V-26H1912.19V27.2683L1965.24 57.9024L1965.36 57.961L1998.88 38.6049V38.078L1965.36 57.4341L1912.64 26.9951Z" fill="#95B9FF"/>
<path d="M1806.51 149.668H1806.4L1753.34 119.034V57.5706H1753.46L1806.51 26.9364H1806.63L1859.68 57.5706V118.975H1859.59L1806.51 149.668ZM1753.83 118.702L1806.51 149.141L1859.2 118.702V57.8632L1806.51 27.4437L1753.83 57.8632V118.702Z" fill="#95B9FF"/>
<path d="M1912.4 149.668H1912.29L1859.23 119.034V57.5706H1859.35L1912.4 26.9364H1912.52L1965.58 57.5706V118.975H1965.46L1912.4 149.668ZM1859.72 118.702L1912.4 149.141L1965.09 118.702V57.8632L1912.4 27.4437L1859.72 57.8632V118.702Z" fill="#95B9FF"/>
<path d="M1859.43 241.375H1859.31L1806.24 210.741V149.278H1806.36L1859.43 118.644H1859.55L1912.6 149.278V210.663H1912.48L1859.43 241.375ZM1806.75 210.41L1859.43 240.849L1912.11 210.41V149.571L1859.43 119.131L1806.75 149.571V210.41Z" fill="#95B9FF"/>
<path d="M1998.88 221.493L1965.36 240.829L1912.64 210.41V149.532L1965.36 119.093L1998.88 138.449V137.922L1965.48 118.625L1965.36 118.566L1912.31 149.2L1912.19 149.259V210.664L1965.24 241.298L1965.36 241.376L1998.88 222.02V221.493Z" fill="#95B9FF"/>
<path d="M1912.4 333.083H1912.29L1859.23 302.449V240.966H1859.35L1912.4 210.332H1912.52L1965.58 240.966V302.371H1965.46L1912.4 333.083ZM1859.72 302.117L1912.4 332.537L1965.09 302.117V241.278L1912.4 210.839L1859.72 241.278V302.117Z" fill="#95B9FF"/>
<path d="M1859.43 608.107H1859.31L1806.24 577.473V516.088H1806.36L1859.43 485.375H1859.55L1912.6 516.01V577.415H1912.48L1859.43 608.107ZM1806.75 577.141L1859.43 607.58L1912.11 577.141V516.4L1859.43 485.98L1806.75 516.4V577.141Z" fill="#95B9FF"/>
<path d="M1998.88 588.302L1965.36 607.658L1912.64 577.219V516.341L1965.36 485.922L1998.88 505.258V504.732L1965.48 485.453L1965.36 485.375L1912.31 516.01L1912.19 516.088V577.493L1965.24 608.127L1965.36 608.185L1998.88 588.829V588.302Z" fill="#95B9FF"/>
<path d="M1928.33 -26V36.3024L1860.52 75.4439L1792.72 36.3024V-26H1790.32V37.6878L1860.52 78.2146L1930.71 37.6878V-26H1928.33Z" fill="#95B9FF"/>
<path d="M1998.86 314.683L1929.52 274.644L1859.27 315.171V396.244L1929.52 436.771L1998.86 396.712V314.683ZM1929.52 434L1861.71 394.859V316.556L1929.52 277.415L1997.3 316.556V394.859L1929.52 434Z" fill="#95B9FF"/>
<path d="M1860.5 556.283L1790.26 515.756V434.683L1860.5 394.156L1930.75 434.683V515.756L1860.5 556.283ZM1792.7 514.449L1860.5 553.473L1928.31 514.449V436.068L1860.5 396.927L1792.7 436.068V514.449Z" fill="#95B9FF"/>
<path d="M1723.7 625.707V555.58L1791.51 516.439L1859.31 555.58V625.707H1861.71V554.195L1791.51 513.668L1721.3 554.195V625.707H1723.7Z" fill="#95B9FF"/>
<path d="M1998.88 625.707V553.727L1929.52 513.668L1859.31 554.195V625.707H1861.71V555.58L1929.52 516.439L1997.32 555.58V625.707H1998.88Z" fill="#95B9FF"/>
<path d="M1594.75 32.6535C1597.8 32.6535 1600.27 30.1813 1600.27 27.1316C1600.27 24.0819 1597.8 21.6096 1594.75 21.6096C1591.7 21.6096 1589.22 24.0819 1589.22 27.1316C1589.22 30.1813 1591.7 32.6535 1594.75 32.6535Z" fill="#95B9FF"/>
<path d="M1700.62 32.3611C1701.65 32.3611 1702.67 32.0544 1703.53 31.4798C1704.39 30.9052 1705.06 30.0886 1705.45 29.133C1705.85 28.1775 1705.95 27.1261 1705.75 26.1117C1705.55 25.0973 1705.05 24.1655 1704.32 23.4342C1703.59 22.7029 1702.65 22.2048 1701.64 22.0031C1700.63 21.8013 1699.57 21.9049 1698.62 22.3007C1697.66 22.6965 1696.85 23.3667 1696.27 24.2266C1695.7 25.0866 1695.39 26.0976 1695.39 27.1319C1695.39 28.5187 1695.94 29.8488 1696.92 30.8295C1697.9 31.8102 1699.23 32.3611 1700.62 32.3611Z" fill="#95B9FF"/>
<path d="M1753.58 60.9853C1755.4 60.9853 1756.87 59.5089 1756.87 57.6877C1756.87 55.8665 1755.4 54.3901 1753.58 54.3901C1751.75 54.3901 1750.28 55.8665 1750.28 57.6877C1750.28 59.5089 1751.75 60.9853 1753.58 60.9853Z" fill="#95B9FF"/>
<path d="M1912.4 33.8829C1916.13 33.8829 1919.16 30.8603 1919.16 27.1317C1919.16 23.4031 1916.13 20.3805 1912.4 20.3805C1908.68 20.3805 1905.65 23.4031 1905.65 27.1317C1905.65 30.8603 1908.68 33.8829 1912.4 33.8829Z" fill="#95B9FF"/>
<path d="M1652.07 57.7076C1652.08 56.8338 1651.82 55.9785 1651.34 55.2503C1650.86 54.5222 1650.17 53.9539 1649.36 53.6177C1648.55 53.2816 1647.67 53.1926 1646.81 53.3621C1645.95 53.5316 1645.16 53.952 1644.55 54.5699C1643.93 55.1878 1643.51 55.9753 1643.34 56.8325C1643.17 57.6898 1643.26 58.578 1643.59 59.3846C1643.93 60.1911 1644.5 60.8797 1645.23 61.3628C1645.95 61.8458 1646.81 62.1017 1647.68 62.0978C1648.85 62.0927 1649.96 61.6285 1650.78 60.8062C1651.6 59.984 1652.07 58.8704 1652.07 57.7076Z" fill="#95B9FF"/>
<path d="M1806.53 30.6828C1808.49 30.6828 1810.08 29.0928 1810.08 27.1315C1810.08 25.1703 1808.49 23.5803 1806.53 23.5803C1804.57 23.5803 1802.98 25.1703 1802.98 27.1315C1802.98 29.0928 1804.57 30.6828 1806.53 30.6828Z" fill="#95B9FF"/>
<path d="M1859.47 61.4926C1861.57 61.4926 1863.27 59.7891 1863.27 57.6877C1863.27 55.5863 1861.57 53.8828 1859.47 53.8828C1857.37 53.8828 1855.66 55.5863 1855.66 57.6877C1855.66 59.7891 1857.37 61.4926 1859.47 61.4926Z" fill="#95B9FF"/>
<path d="M1753.58 124.498C1756.7 124.498 1759.23 121.964 1759.23 118.839C1759.23 115.714 1756.7 113.181 1753.58 113.181C1750.45 113.181 1747.92 115.714 1747.92 118.839C1747.92 121.964 1750.45 124.498 1753.58 124.498Z" fill="#95B9FF"/>
<path d="M1800.64 149.395C1800.64 150.553 1800.98 151.684 1801.63 152.647C1802.27 153.61 1803.18 154.36 1804.25 154.803C1805.32 155.246 1806.5 155.362 1807.64 155.136C1808.77 154.91 1809.81 154.353 1810.63 153.534C1811.45 152.715 1812.01 151.672 1812.23 150.537C1812.46 149.401 1812.34 148.224 1811.9 147.155C1811.46 146.085 1810.71 145.171 1809.75 144.528C1808.78 143.885 1807.65 143.541 1806.49 143.541C1804.94 143.541 1803.45 144.158 1802.35 145.256C1801.26 146.353 1800.64 147.842 1800.64 149.395Z" fill="#95B9FF"/>
<path d="M1859.47 244.654C1861.43 244.654 1863.02 243.064 1863.02 241.102C1863.02 239.141 1861.43 237.551 1859.47 237.551C1857.51 237.551 1855.92 239.141 1855.92 241.102C1855.92 243.064 1857.51 244.654 1859.47 244.654Z" fill="#95B9FF"/>
<path d="M1806.51 205.922C1805.6 205.922 1804.7 206.193 1803.94 206.701C1803.18 207.21 1802.59 207.932 1802.24 208.777C1801.89 209.622 1801.8 210.552 1801.98 211.449C1802.15 212.346 1802.6 213.17 1803.24 213.816C1803.89 214.463 1804.71 214.904 1805.61 215.082C1806.51 215.26 1807.44 215.169 1808.28 214.819C1809.13 214.469 1809.85 213.876 1810.36 213.116C1810.87 212.355 1811.14 211.461 1811.14 210.546C1811.14 209.32 1810.65 208.144 1809.78 207.277C1808.91 206.409 1807.74 205.922 1806.51 205.922Z" fill="#95B9FF"/>
<path d="M1859.47 123.776C1862.2 123.776 1864.41 121.565 1864.41 118.839C1864.41 116.113 1862.2 113.902 1859.47 113.902C1856.74 113.902 1854.53 116.113 1854.53 118.839C1854.53 121.565 1856.74 123.776 1859.47 123.776Z" fill="#95B9FF"/>
<path d="M1912.41 217.531C1916.27 217.531 1919.41 214.395 1919.41 210.527C1919.41 206.658 1916.27 203.522 1912.41 203.522C1908.54 203.522 1905.4 206.658 1905.4 210.527C1905.4 214.395 1908.54 217.531 1912.41 217.531Z" fill="#95B9FF"/>
<path d="M1912.41 156.341C1913.78 156.345 1915.12 155.941 1916.27 155.18C1917.41 154.419 1918.31 153.336 1918.84 152.067C1919.37 150.798 1919.51 149.401 1919.24 148.052C1918.97 146.703 1918.31 145.464 1917.34 144.49C1916.37 143.517 1915.14 142.853 1913.79 142.584C1912.44 142.314 1911.04 142.451 1909.77 142.976C1908.5 143.501 1907.41 144.391 1906.65 145.534C1905.89 146.677 1905.48 148.02 1905.48 149.395C1905.48 150.306 1905.65 151.209 1906 152.052C1906.35 152.895 1906.86 153.66 1907.5 154.306C1908.14 154.951 1908.91 155.463 1909.75 155.812C1910.59 156.162 1911.49 156.341 1912.41 156.341Z" fill="#95B9FF"/>
<path d="M1859.43 421.239C1858.78 421.235 1858.14 421.424 1857.6 421.782C1857.06 422.14 1856.64 422.65 1856.39 423.249C1856.14 423.848 1856.07 424.507 1856.19 425.144C1856.32 425.782 1856.63 426.368 1857.09 426.828C1857.54 427.288 1858.13 427.603 1858.76 427.731C1859.4 427.859 1860.06 427.795 1860.66 427.547C1861.26 427.3 1861.77 426.88 1862.13 426.34C1862.5 425.801 1862.69 425.166 1862.69 424.517C1862.69 423.651 1862.35 422.82 1861.73 422.206C1861.12 421.592 1860.3 421.244 1859.43 421.239Z" fill="#95B9FF"/>
<path d="M1859.47 306.039C1861.57 306.039 1863.27 304.335 1863.27 302.234C1863.27 300.133 1861.57 298.429 1859.47 298.429C1857.37 298.429 1855.66 300.133 1855.66 302.234C1855.66 304.335 1857.37 306.039 1859.47 306.039Z" fill="#95B9FF"/>
<path d="M1912.41 340.264C1916.52 340.264 1919.86 336.926 1919.86 332.81C1919.86 328.693 1916.52 325.356 1912.41 325.356C1908.29 325.356 1904.95 328.693 1904.95 332.81C1904.95 336.926 1908.29 340.264 1912.41 340.264Z" fill="#95B9FF"/>
<path d="M1863.86 485.649C1863.86 484.775 1863.61 483.92 1863.12 483.192C1862.64 482.463 1861.95 481.895 1861.15 481.559C1860.34 481.223 1859.45 481.134 1858.59 481.303C1857.74 481.473 1856.95 481.893 1856.33 482.511C1855.71 483.129 1855.29 483.917 1855.12 484.774C1854.95 485.631 1855.04 486.519 1855.38 487.326C1855.71 488.132 1856.28 488.821 1857.01 489.304C1857.74 489.787 1858.59 490.043 1859.47 490.039C1860.63 490.039 1861.75 489.577 1862.57 488.753C1863.4 487.93 1863.86 486.813 1863.86 485.649Z" fill="#95B9FF"/>
<path d="M1806.51 520.771C1807.41 520.771 1808.29 520.504 1809.04 520.005C1809.79 519.505 1810.37 518.795 1810.71 517.964C1811.06 517.133 1811.15 516.219 1810.97 515.337C1810.8 514.456 1810.36 513.645 1809.73 513.01C1809.09 512.374 1808.28 511.941 1807.4 511.765C1806.52 511.59 1805.6 511.68 1804.77 512.024C1803.94 512.368 1803.23 512.951 1802.73 513.699C1802.23 514.446 1801.97 515.325 1801.97 516.224C1801.97 517.43 1802.44 518.587 1803.3 519.439C1804.15 520.292 1805.31 520.771 1806.51 520.771Z" fill="#95B9FF"/>
<path d="M1912.4 521.259C1915.18 521.259 1917.44 519.005 1917.44 516.224C1917.44 513.444 1915.18 511.19 1912.4 511.19C1909.62 511.19 1907.37 513.444 1907.37 516.224C1907.37 519.005 1909.62 521.259 1912.4 521.259Z" fill="#95B9FF"/>
</g>
</g>
</g>
</svg>
