<svg width="90" height="76" viewBox="0 0 90 76" fill="none" xmlns="http://www.w3.org/2000/svg">
<path d="M24.2872 50.7436C24.2872 49.1976 23.8287 47.6863 22.9698 46.4008C22.1108 45.1153 20.89 44.1134 19.4617 43.5218C18.0333 42.9301 16.4616 42.7753 14.9453 43.0769C13.4289 43.3785 12.0361 44.123 10.9429 45.2162C9.84965 46.3095 9.10516 47.7023 8.80354 49.2187C8.50193 50.735 8.65677 52.3067 9.24841 53.735C9.84005 55.1634 10.842 56.3842 12.1275 57.2431C13.4129 58.1021 14.9242 58.5605 16.4703 58.5605C18.5434 58.5605 20.5317 57.737 21.9976 56.271C23.4636 54.8051 24.2872 52.8168 24.2872 50.7436Z" stroke="#9B9BF2" stroke-width="1.86752" stroke-miterlimit="10"/>
<path d="M31.8319 70.9555C31.8381 72.3216 31.6586 73.6822 31.2983 75H1.66343C1.30312 73.6822 1.12361 72.3216 1.12986 70.9555C1.12746 68.3513 1.78855 65.7894 3.05072 63.5115C4.31288 61.2337 6.13452 59.3149 8.34382 57.9362C9.36281 59.0929 10.6164 60.0195 12.0213 60.6541C13.4261 61.2888 14.95 61.617 16.4915 61.617C18.0331 61.617 19.557 61.2888 20.9618 60.6541C22.3667 60.0195 23.6203 59.0929 24.6393 57.9362C26.8446 59.3175 28.662 61.2374 29.9204 63.5151C31.1787 65.7928 31.8365 68.3533 31.8319 70.9555Z" stroke="#9B9BF2" stroke-width="1.86752" stroke-miterlimit="10"/>
<path d="M51.2949 17.0632C54.3476 14.0105 54.3476 9.0611 51.2949 6.00841C48.2422 2.95572 43.2928 2.95572 40.2401 6.00841C37.1874 9.0611 37.1874 14.0105 40.2401 17.0632C43.2928 20.1159 48.2422 20.1159 51.2949 17.0632Z" stroke="#9B9BF2" stroke-width="1.86752" stroke-miterlimit="10"/>
<path d="M61.1309 31.7537C61.1367 33.1181 60.9572 34.4768 60.5973 35.7929H30.9624C30.6025 34.4768 30.423 33.1181 30.4289 31.7537C30.426 29.1493 31.0862 26.5871 32.3474 24.3084C33.6085 22.0297 35.4291 20.1096 37.6375 18.7291C38.657 19.8859 39.911 20.8125 41.3163 21.4472C42.7216 22.0819 44.2459 22.4101 45.7879 22.4101C47.3298 22.4101 48.8541 22.0819 50.2594 21.4472C51.6647 20.8125 52.9187 19.8859 53.9382 18.7291C56.1443 20.1108 57.9622 22.0316 59.2206 24.3103C60.479 26.589 61.1364 29.1506 61.1309 31.7537Z" stroke="#9B9BF2" stroke-width="1.86752" stroke-miterlimit="10"/>
<path d="M80.9608 51.6384C81.4861 47.3533 78.4383 43.4537 74.1532 42.9283C69.8682 42.4029 65.9685 45.4508 65.4431 49.7358C64.9178 54.0209 67.9656 57.9205 72.2507 58.4459C76.5357 58.9713 80.4354 55.9235 80.9608 51.6384Z" stroke="#9B9BF2" stroke-width="1.86752" stroke-miterlimit="10"/>
<path d="M88.6097 70.9555C88.6134 72.3214 88.4339 73.6817 88.0762 75H58.436C58.0756 73.6822 57.8961 72.3216 57.9024 70.9555C57.8999 68.3519 58.5604 65.7906 59.8215 63.5128C61.0827 61.2351 62.903 59.3159 65.111 57.9362C66.1305 59.0931 67.3845 60.0196 68.7898 60.6543C70.1951 61.289 71.7194 61.6173 73.2614 61.6173C74.8034 61.6173 76.3276 61.289 77.7329 60.6543C79.1382 60.0196 80.3923 59.0931 81.4118 57.9362C83.6174 59.3176 85.4353 61.2374 86.6945 63.5149C87.9537 65.7925 88.6128 68.353 88.6097 70.9555Z" stroke="#9B9BF2" stroke-width="1.86752" stroke-miterlimit="10"/>
<path d="M45.7683 40.1895V52.2323" stroke="#9B9BF2" stroke-width="1.86752" stroke-miterlimit="10"/>
<path d="M35.337 58.2511L45.7684 52.2324" stroke="#9B9BF2" stroke-width="1.86752" stroke-miterlimit="10"/>
<path d="M56.1944 58.2511L45.7683 52.2324" stroke="#9B9BF2" stroke-width="1.86752" stroke-miterlimit="10"/>
</svg>
