<svg width="93" height="86" viewBox="0 0 93 86" fill="none" xmlns="http://www.w3.org/2000/svg">
<path d="M63.581 1V85.0853H1V1.00471L63.581 1Z" stroke="#9B9BF2" stroke-width="1.65346" stroke-miterlimit="10"/>
<path d="M11.1238 56.2018H32.8975" stroke="#9B9BF2" stroke-width="1.65346" stroke-miterlimit="10"/>
<path d="M11.1238 47.4291H30.7055" stroke="#9B9BF2" stroke-width="1.65346" stroke-miterlimit="10"/>
<path d="M11.1238 65.0408H37.5886" stroke="#9B9BF2" stroke-width="1.65346" stroke-miterlimit="10"/>
<path d="M11.1238 73.8749H46.2007" stroke="#9B9BF2" stroke-width="1.65346" stroke-miterlimit="10"/>
<path d="M32.8416 26.0063C34.441 20.1197 30.9655 14.0511 25.0788 12.4517C19.1922 10.8523 13.1236 14.3279 11.5242 20.2145C9.92487 26.1011 13.4004 32.1697 19.287 33.7691C25.1736 35.3684 31.2422 31.8929 32.8416 26.0063Z" stroke="#9B9BF2" stroke-width="1.65346" stroke-miterlimit="10"/>
<path d="M22.1691 23.7091C24.058 23.7091 25.5894 22.1777 25.5894 20.2888C25.5894 18.3998 24.058 16.8685 22.1691 16.8685C20.2801 16.8685 18.7488 18.3998 18.7488 20.2888C18.7488 22.1777 20.2801 23.7091 22.1691 23.7091Z" stroke="#9B9BF2" stroke-width="1.65346" stroke-miterlimit="10"/>
<path d="M14.7287 31.2536C15.3714 29.817 16.4162 28.5971 17.7369 27.7411C19.0576 26.8852 20.5978 26.4297 22.1716 26.4297C23.7454 26.4297 25.2856 26.8852 26.6063 27.7411C27.927 28.5971 28.9718 29.817 29.6145 31.2536" stroke="#9B9BF2" stroke-width="1.65346" stroke-miterlimit="10"/>
<path d="M83.0726 51.9575C87.7605 40.8326 82.5423 28.0138 71.4175 23.326C60.2926 18.6381 47.4739 23.8563 42.786 34.9811C38.0981 46.106 43.3163 58.9247 54.4412 63.6126C65.566 68.3004 78.3848 63.0823 83.0726 51.9575Z" fill="#0A0A10" stroke="#9B9BF2" stroke-width="1.65346" stroke-miterlimit="10"/>
<path d="M78.1363 59.1261L91.397 78.7267C91.9193 79.5006 92.1132 80.4501 91.936 81.3669C91.7589 82.2836 91.2252 83.0926 90.4521 83.6161C89.679 84.1382 88.7301 84.332 87.8142 84.1549C86.8982 83.9777 86.0901 83.4441 85.5674 82.6713L72.3397 63.1464" stroke="#9B9BF2" stroke-width="1.65346" stroke-miterlimit="10"/>
<path d="M49.5359 52.484C47.1383 48.9372 46.2472 44.5835 47.0586 40.38C47.8701 36.1764 50.3177 32.4672 53.8633 30.0678" stroke="#9B9BF2" stroke-width="1.65346" stroke-miterlimit="10"/>
</svg>
