<svg width="91" height="75" viewBox="0 0 91 75" fill="none" xmlns="http://www.w3.org/2000/svg">
<path d="M27.7791 73.9998H57.1402H63.374" stroke="#9B9BF2" stroke-width="1.53219" stroke-miterlimit="10" stroke-linecap="round"/>
<path d="M86.4269 0.826904H4.72611C2.69763 0.826904 1.05322 2.47132 1.05322 4.49979V59.9826C1.05322 62.0111 2.69763 63.6555 4.72611 63.6555H86.4269C88.4554 63.6555 90.0998 62.0111 90.0998 59.9826V4.49979C90.0998 2.47132 88.4554 0.826904 86.4269 0.826904Z" stroke="#9B9BF2" stroke-width="1.53219" stroke-miterlimit="10" stroke-linecap="round"/>
<path d="M50.2589 63.6554L54.8992 73.9999" stroke="#9B9BF2" stroke-width="1.53219" stroke-miterlimit="10" stroke-linecap="round"/>
<path d="M40.8947 63.6554L36.25 73.9999" stroke="#9B9BF2" stroke-width="1.53219" stroke-miterlimit="10" stroke-linecap="round"/>
<path d="M90.1044 55.5042H1.05783" stroke="#9B9BF2" stroke-width="1.53219" stroke-miterlimit="10" stroke-linecap="round"/>
<path d="M43.7973 59.6543C43.7973 59.301 43.9021 58.9557 44.0983 58.662C44.2946 58.3682 44.5735 58.1393 44.8999 58.0041C45.2263 57.8689 45.5854 57.8336 45.9319 57.9025C46.2783 57.9714 46.5966 58.1415 46.8464 58.3913C47.0962 58.6411 47.2663 58.9593 47.3352 59.3058C47.4041 59.6523 47.3688 60.0114 47.2336 60.3377C47.0984 60.6641 46.8694 60.9431 46.5757 61.1393C46.282 61.3356 45.9367 61.4403 45.5834 61.4403C45.1097 61.4403 44.6554 61.2522 44.3204 60.9172C43.9855 60.5823 43.7973 60.128 43.7973 59.6543Z" stroke="#9B9BF2" stroke-width="1.53219" stroke-miterlimit="10" stroke-linecap="round"/>
<path d="M10.2028 17.659H46.5551" stroke="#9B9BF2" stroke-width="1.53219" stroke-miterlimit="10"/>
<path d="M10.2028 22.3607H46.5551" stroke="#9B9BF2" stroke-width="1.53219" stroke-miterlimit="10"/>
<path d="M10.2028 38.4181H46.5551" stroke="#9B9BF2" stroke-width="1.53219" stroke-miterlimit="10"/>
<path d="M10.2028 43.1153H46.5551" stroke="#9B9BF2" stroke-width="1.53219" stroke-miterlimit="10"/>
<path d="M63.5546 25.0049C66.0916 22.4679 66.0916 18.3545 63.5546 15.8175C61.0176 13.2804 56.9042 13.2805 54.3672 15.8175C51.8301 18.3545 51.8301 22.4679 54.3672 25.0049C56.9042 27.5419 61.0175 27.5419 63.5546 25.0049Z" fill="#0A0A10" stroke="#9B9BF2" stroke-width="1.53219" stroke-miterlimit="10"/>
<path d="M55.7263 20.5746L57.5912 22.6058L62.1965 18.2194" stroke="#9B9BF2" stroke-width="1.53219" stroke-miterlimit="10"/>
<path d="M65.2859 41.6548C66.1156 38.1641 63.9584 34.6617 60.4677 33.8321C56.9771 33.0024 53.4748 35.1596 52.6451 38.6503C51.8154 42.1409 53.9726 45.6432 57.4633 46.4729C60.9539 47.3026 64.4563 45.1454 65.2859 41.6548Z" fill="#0A0A10" stroke="#9B9BF2" stroke-width="1.53219" stroke-miterlimit="10"/>
<path d="M80.5053 25.0009C83.0423 22.4638 83.0423 18.3505 80.5053 15.8135C77.9682 13.2764 73.8549 13.2764 71.3179 15.8135C68.7808 18.3505 68.7808 22.4639 71.3179 25.0009C73.8549 27.5379 77.9682 27.5379 80.5053 25.0009Z" fill="#0A0A10" stroke="#9B9BF2" stroke-width="1.53219" stroke-miterlimit="10"/>
<path d="M82.2329 41.6544C83.0625 38.1638 80.9053 34.6614 77.4146 33.8318C73.924 33.0021 70.4217 35.1593 69.592 38.6499C68.7623 42.1406 70.9195 45.6429 74.4102 46.4726C77.9008 47.3023 81.4032 45.1451 82.2329 41.6544Z" fill="#0A0A10" stroke="#9B9BF2" stroke-width="1.53219" stroke-miterlimit="10"/>
<path d="M1.05783 6.6886H90.1" stroke="#9B9BF2" stroke-width="1.53219" stroke-miterlimit="10"/>
<path d="M72.633 36.7983L79.1864 43.483" stroke="#9B9BF2" stroke-width="1.53219" stroke-miterlimit="10"/>
<path d="M79.1864 36.7983L72.633 43.483" stroke="#9B9BF2" stroke-width="1.53219" stroke-miterlimit="10"/>
</svg>
