<svg width="106" height="66" viewBox="0 0 106 66" fill="none" xmlns="http://www.w3.org/2000/svg">
<g clip-path="url(#clip0_77_1141)">
<path d="M88.9903 1.32828C86.0496 1.32912 83.1674 2.14932 80.6669 3.69687C78.1665 5.24443 76.1467 7.45809 74.8342 10.0895C73.5216 12.721 72.9683 15.6661 73.2363 18.5945C73.5042 21.5229 74.5829 24.3187 76.3512 26.6683L75.1876 35.8494L83.6816 32.0606C85.8536 32.8338 88.1685 33.123 90.464 32.9079C92.7596 32.6929 94.9804 31.9788 96.9711 30.8157C98.9618 29.6526 100.674 28.0685 101.989 26.1744C103.303 24.2802 104.188 22.1216 104.581 19.8498C104.974 17.5779 104.866 15.2476 104.264 13.022C103.662 10.7963 102.581 8.72903 101.097 6.96481C99.6124 5.2006 97.7604 3.78204 95.6705 2.80842C93.5805 1.8348 91.3031 1.32965 88.9975 1.32828H88.9903Z" stroke="#9B9BF2" stroke-width="1.27264" stroke-miterlimit="10"/>
<path d="M71.6102 51.1396C74.7098 50.0185 76.3136 46.597 75.1925 43.4974C74.0714 40.3978 70.6499 38.794 67.5503 39.9151C64.4508 41.0362 62.8469 44.4578 63.968 47.5573C65.0891 50.6569 68.5107 52.2607 71.6102 51.1396Z" stroke="#9B9BF2" stroke-width="1.27213" stroke-miterlimit="10"/>
<path d="M56.6325 65.3819C56.6306 62.9307 57.3171 60.5282 58.6137 58.4479C59.9103 56.3677 61.765 54.6933 63.9665 53.6155C65.7333 54.583 67.7153 55.0901 69.7297 55.0901C71.7441 55.0901 73.7261 54.583 75.4929 53.6155C77.6931 54.6943 79.5463 56.3691 80.8415 58.4493C82.1368 60.5295 82.8222 62.9314 82.8197 65.3819" stroke="#9B9BF2" stroke-width="1.27264" stroke-miterlimit="10" stroke-linecap="round"/>
<path d="M17.0097 0.695603C19.9509 0.695091 22.8341 1.51432 25.3356 3.06133C27.8372 4.60835 29.858 6.82195 31.1714 9.45365C32.4848 12.0854 33.0388 15.031 32.7711 17.9601C32.5034 20.8891 31.4247 23.6856 29.6561 26.0356L30.8196 35.2168L22.3257 31.4279C20.1536 32.2011 17.8388 32.4903 15.5432 32.2753C13.2477 32.0602 11.0269 31.3462 9.03614 30.1831C7.04543 29.02 5.33293 27.4359 4.01846 25.5417C2.70399 23.6475 1.8193 21.489 1.42632 19.2171C1.03334 16.9453 1.14156 14.615 1.74339 12.3893C2.34522 10.1636 3.42613 8.09638 4.91049 6.33216C6.39484 4.56794 8.24678 3.14938 10.3367 2.17577C12.4267 1.20215 14.7041 0.696971 17.0097 0.695603Z" stroke="#9B9BF2" stroke-width="1.27264" stroke-miterlimit="10"/>
<path d="M39.4922 49.9004C41.8239 47.5687 41.8239 43.7885 39.4922 41.4568C37.1606 39.1252 33.3803 39.1252 31.0487 41.4568C28.7171 43.7885 28.7171 47.5688 31.0487 49.9004C33.3803 52.232 37.1606 52.232 39.4922 49.9004Z" stroke="#9B9BF2" stroke-width="1.27264" stroke-miterlimit="10"/>
<path d="M22.1729 65.3819C22.1704 62.9314 22.8558 60.5295 24.151 58.4493C25.4463 56.3691 27.2995 54.6943 29.4997 53.6155C31.2665 54.583 33.2485 55.0901 35.2629 55.0901C37.2773 55.0901 39.2593 54.583 41.0261 53.6155C43.2263 54.6943 45.0795 56.3691 46.3747 58.4493C47.67 60.5295 48.3554 62.9314 48.3529 65.3819" stroke="#9B9BF2" stroke-width="1.27264" stroke-miterlimit="10" stroke-linecap="round"/>
<path d="M62.323 31.9334H49.0767" stroke="#9B9BF2" stroke-width="1.27264" stroke-miterlimit="10" stroke-linecap="round"/>
<path d="M47.8549 26.541L42.6734 31.937L47.8549 37.5512" stroke="#9B9BF2" stroke-width="1.27264" stroke-miterlimit="10" stroke-linecap="round"/>
<path d="M42.6734 17.149H55.9198" stroke="#9B9BF2" stroke-width="1.27264" stroke-miterlimit="10" stroke-linecap="round"/>
<path d="M57.1411 11.7566L62.3189 17.1489L57.1411 22.7667" stroke="#9B9BF2" stroke-width="1.27264" stroke-miterlimit="10" stroke-linecap="round"/>
<path d="M82.2271 13.1311H95.7534" stroke="#9B9BF2" stroke-width="1.27264" stroke-miterlimit="10" stroke-linecap="round"/>
<path d="M82.2271 17.7453H95.7534" stroke="#9B9BF2" stroke-width="1.27264" stroke-miterlimit="10" stroke-linecap="round"/>
<path d="M82.2271 22.3595H90.0338" stroke="#9B9BF2" stroke-width="1.27264" stroke-miterlimit="10" stroke-linecap="round"/>
<path d="M10.2466 12.502H23.7729" stroke="#9B9BF2" stroke-width="1.27264" stroke-miterlimit="10" stroke-linecap="round"/>
<path d="M10.2466 17.1126H23.7729" stroke="#9B9BF2" stroke-width="1.27264" stroke-miterlimit="10" stroke-linecap="round"/>
<path d="M10.2466 21.7268H19.166" stroke="#9B9BF2" stroke-width="1.27264" stroke-miterlimit="10" stroke-linecap="round"/>
</g>
<defs>
<clipPath id="clip0_77_1141">
<rect width="104.902" height="65.9407" fill="white" transform="translate(0.549225 0.0592728)"/>
</clipPath>
</defs>
</svg>
