<svg width="69" height="86" viewBox="0 0 69 86" fill="none" xmlns="http://www.w3.org/2000/svg">
<g clip-path="url(#clip0_77_1181)">
<path d="M56.6133 10.4742V85.0636H1.09885V10.4784L56.6133 10.4742Z" stroke="#9B9BF2" stroke-width="1.46697" stroke-miterlimit="10"/>
<path d="M67.4461 20.8772C69.5252 12.0682 64.0696 3.24174 55.2607 1.16264C46.4518 -0.91645 37.6253 4.53917 35.5462 13.3481C33.4671 22.157 38.9227 30.9835 47.7316 33.0626C56.5406 35.1417 65.367 29.6861 67.4461 20.8772Z" fill="#0A0A10" stroke="#9B9BF2" stroke-width="1.46697" stroke-miterlimit="10"/>
<path d="M10.0769 59.446H47.4847" stroke="#9B9BF2" stroke-width="1.46697" stroke-miterlimit="10"/>
<path d="M10.0769 51.6627H47.4847" stroke="#9B9BF2" stroke-width="1.46697" stroke-miterlimit="10"/>
<path d="M10.0769 67.2838H47.4847" stroke="#9B9BF2" stroke-width="1.46697" stroke-miterlimit="10"/>
<path d="M10.0769 75.1217H35.1244" stroke="#9B9BF2" stroke-width="1.46697" stroke-miterlimit="10"/>
<path d="M43.352 17.5366L48.0547 22.6543L59.6731 11.5891" stroke="#9B9BF2" stroke-width="1.46697" stroke-miterlimit="10"/>
<path d="M29.3913 32.5003C30.7235 27.2547 27.5511 21.9224 22.3056 20.5902C17.0601 19.258 11.7278 22.4304 10.3956 27.676C9.06339 32.9215 12.2358 38.2538 17.4813 39.586C22.7268 40.9182 28.0591 37.7458 29.3913 32.5003Z" stroke="#9B9BF2" stroke-width="1.46697" stroke-miterlimit="10"/>
<path d="M22.6792 28.7478C23.3205 27.1995 22.5853 25.4244 21.0369 24.783C19.4885 24.1417 17.7134 24.8769 17.0721 26.4253C16.4307 27.9737 17.166 29.7488 18.7144 30.3901C20.2627 31.0315 22.0378 30.2962 22.6792 28.7478Z" stroke="#9B9BF2" stroke-width="1.46697" stroke-miterlimit="10"/>
<path d="M13.2749 37.3157C13.8452 36.0411 14.7721 34.9588 15.9439 34.1994C17.1156 33.44 18.4821 33.0359 19.8784 33.0359C21.2747 33.0359 22.6412 33.44 23.813 34.1994C24.9847 34.9588 25.9116 36.0411 26.4819 37.3157" stroke="#9B9BF2" stroke-width="1.46697" stroke-miterlimit="10"/>
</g>
<defs>
<clipPath id="clip0_77_1181">
<rect width="68.2688" height="85.797" fill="white" transform="translate(0.365601)"/>
</clipPath>
</defs>
</svg>
