<svg width="224" height="236" viewBox="0 0 224 236" fill="none" xmlns="http://www.w3.org/2000/svg">
<g clip-path="url(#clip0_101_605)">
<path d="M222.954 115.251V114.826C222.996 114.968 222.982 115.11 222.954 115.251Z" fill="#1FEC34"/>
<path d="M39.3783 56.9643C25.3148 68.813 14.7202 84.2469 8.71811 101.629L1.48895 101.218C4.90603 81.5355 13.1896 63.0193 25.5862 47.3538L39.3783 56.9643Z" fill="#407BFF"/>
<path opacity="0.6" d="M39.3783 56.9643C25.3148 68.813 14.7202 84.2469 8.71811 101.629L1.48895 101.218C4.90603 81.5355 13.1896 63.0193 25.5862 47.3538L39.3783 56.9643Z" fill="#EC1F1F"/>
<path d="M82.2556 35.2344C66.4363 38.9603 51.7356 46.4103 39.3767 56.9644L25.5278 47.4106C37.8723 31.6591 53.7706 19.0541 71.9221 10.6269L82.2556 35.2344Z" fill="#ECBA1F"/>
<path opacity="0.5" d="M82.2556 35.2344C66.4363 38.9603 51.7356 46.4103 39.3767 56.9644L25.5278 47.4106C37.8723 31.6591 53.7706 19.0541 71.9221 10.6269L82.2556 35.2344Z" fill="white"/>
<path d="M128.254 -0.259544L123.165 34.8232C118.163 33.7211 113.073 33.0571 107.956 32.8387C99.3201 32.4616 90.6736 33.2676 82.2566 35.2343L71.9232 10.6267C88.9965 2.6313 107.745 -1.13205 126.581 -0.34459C127.134 -0.34459 127.701 -0.344593 128.254 -0.259544Z" fill="#ECBA1F"/>
<path opacity="0.4" d="M128.254 -0.259544L123.165 34.8232C118.163 33.7211 113.073 33.0571 107.956 32.8387C99.3201 32.4616 90.6736 33.2676 82.2566 35.2343L71.9232 10.6267C88.9965 2.6313 107.745 -1.13205 126.581 -0.34459C127.134 -0.34459 127.701 -0.344593 128.254 -0.259544Z" fill="white"/>
<path d="M180.362 17.0762L155.868 49.7917C146.193 42.4715 135.03 37.362 123.167 34.8231L128.256 -0.259674C146.869 0.720519 164.872 6.71005 180.362 17.0762Z" fill="#ECBA1F"/>
<path opacity="0.3" d="M180.362 17.0762L155.868 49.7917C146.193 42.4715 135.03 37.362 123.167 34.8231L128.256 -0.259674C146.869 0.720519 164.872 6.71005 180.362 17.0762Z" fill="white"/>
<path d="M215.104 58.4667L178.32 76.086C172.816 65.807 165.157 56.8378 155.867 49.7916L180.362 17.0761C195.576 27.3632 207.61 41.7 215.104 58.4667Z" fill="#1FEC34"/>
<path opacity="0.2" d="M215.104 58.4667L178.32 76.086C172.816 65.807 165.157 56.8378 155.867 49.7916L180.362 17.0761C195.576 27.3632 207.61 41.7 215.104 58.4667Z" fill="white"/>
<path d="M223.127 113.805L188.016 111.821C187.495 99.3345 184.182 87.1237 178.32 76.0861L215.175 58.4668C222.807 75.847 225.557 94.9793 223.127 113.805Z" fill="#1FEC34"/>
<path opacity="0.1" d="M223.127 113.805L188.016 111.821C187.495 99.3345 184.182 87.1237 178.32 76.0861L215.175 58.4668C222.807 75.847 225.557 94.9793 223.127 113.805Z" fill="white"/>
<path d="M223.026 114.826C223.026 114.968 223.026 115.11 223.026 115.251C221.609 125.103 216.973 141.361 212.055 150.688L183.903 142.992L186.738 132.233C187.008 130.815 187.249 129.398 187.447 127.98L187.561 127.116C188.203 122.025 188.397 116.889 188.142 111.764L223.253 113.749C223.253 113.947 223.253 114.132 223.253 114.344L223.026 114.826Z" fill="#1FEC34"/>
<path d="M4.09559 139.178L1.94101 139.547C1.40237 136.807 0.972412 134.033 0.651115 131.226C-0.313636 122.612 -0.251793 113.914 0.835373 105.315V104.904C0.835373 104.762 0.835378 104.606 0.906252 104.464C1.07635 103.373 1.23227 102.296 1.41655 101.218L8.64573 101.629C6.70702 107.272 5.31154 113.086 4.47832 118.993C4.47832 119.135 4.47832 119.291 4.39327 119.433V119.858C3.96517 123.348 3.73798 126.86 3.71286 130.376C3.683 133.315 3.81077 136.253 4.09559 139.178Z" fill="#407BFF"/>
<path opacity="0.7" d="M4.09559 139.178L1.94101 139.547C1.40237 136.807 0.972412 134.033 0.651115 131.226C-0.313636 122.612 -0.251793 113.914 0.835373 105.315V104.904C0.835373 104.762 0.835378 104.606 0.906252 104.464C1.07635 103.373 1.23227 102.296 1.41655 101.218L8.64573 101.629C6.70702 107.272 5.31154 113.086 4.47832 118.993C4.47832 119.135 4.47832 119.291 4.39327 119.433V119.858C3.96517 123.348 3.73798 126.86 3.71286 130.376C3.683 133.315 3.81077 136.253 4.09559 139.178Z" fill="#EC1F1F"/>
<path d="M219.44 143.063L216.137 150.377L210.113 148.733L154.052 133.381L129.954 126.762C131.762 124.664 133.278 122.333 134.462 119.83C135.836 116.913 136.726 113.791 137.099 110.588L190.339 131.567L219.44 143.063Z" fill="#24243E"/>
<path d="M137.043 110.588C136.351 116.567 133.883 122.2 129.956 126.761L108.283 120.822L116.05 102.281L137.043 110.588Z" fill="#24243E"/>
<path d="M124.073 110.021C123.593 114.127 121.889 117.994 119.183 121.119C117.23 123.427 114.816 125.301 112.096 126.619C102.173 131.354 90.9325 127.569 86.9635 118.114C82.9946 108.66 87.8282 97.1923 97.7364 92.4437C107.645 87.6952 118.899 91.4798 122.868 100.949C124.044 103.819 124.459 106.943 124.073 110.021Z" fill="white"/>
</g>
<path d="M81.773 225H77.9465V209.707H76.0399V205.881H81.773V225ZM96.4656 215.44C96.4656 213.316 96.1101 211.738 95.399 210.707C94.6968 209.676 93.7146 209.161 92.4525 209.161C91.1992 209.161 90.2259 209.672 89.5326 210.694C88.8393 211.716 88.4927 213.298 88.4927 215.44C88.4927 217.565 88.8393 219.143 89.5326 220.174C90.2259 221.205 91.1992 221.72 92.4525 221.72C93.0836 221.72 93.648 221.596 94.1457 221.347C94.6435 221.089 95.0612 220.702 95.399 220.187C95.7456 219.671 96.0079 219.023 96.1856 218.24C96.3723 217.449 96.4656 216.516 96.4656 215.44ZM100.105 215.44C100.105 217.254 99.9054 218.787 99.5055 220.04C99.1055 221.294 98.5588 222.307 97.8655 223.08C97.1722 223.853 96.359 224.413 95.4257 224.76C94.5013 225.098 93.5102 225.267 92.4525 225.267C91.3948 225.267 90.3992 225.093 89.466 224.747C88.5416 224.391 87.7327 223.827 87.0394 223.053C86.355 222.271 85.8128 221.258 85.4128 220.014C85.0128 218.76 84.8129 217.236 84.8129 215.44C84.8129 213.627 85.0128 212.098 85.4128 210.854C85.8128 209.601 86.355 208.587 87.0394 207.814C87.7327 207.041 88.5416 206.481 89.466 206.134C90.3992 205.788 91.3948 205.614 92.4525 205.614C93.5102 205.614 94.5013 205.792 95.4257 206.148C96.359 206.494 97.1722 207.059 97.8655 207.841C98.5588 208.623 99.1055 209.636 99.5055 210.881C99.9054 212.125 100.105 213.645 100.105 215.44Z" fill="#1FEC34"/>
<path d="M112.625 199.278L105.143 229.642H102.686L110.14 199.278H112.625ZM115.262 207.525V205.258H120.396V225H117.884V207.525H115.262ZM124.664 214.924C124.664 211.793 125.174 209.354 126.193 207.607C127.212 205.841 128.996 204.958 131.545 204.958C134.075 204.958 135.85 205.841 136.869 207.607C137.889 209.354 138.398 211.793 138.398 214.924C138.398 218.11 137.889 220.586 136.869 222.351C135.85 224.117 134.075 225 131.545 225C128.996 225 127.212 224.117 126.193 222.351C125.174 220.586 124.664 218.11 124.664 214.924ZM135.941 214.924C135.941 213.341 135.832 212.003 135.613 210.91C135.413 209.8 134.985 208.908 134.33 208.235C133.693 207.561 132.764 207.224 131.545 207.224C130.307 207.224 129.36 207.561 128.705 208.235C128.068 208.908 127.64 209.8 127.422 210.91C127.222 212.003 127.121 213.341 127.121 214.924C127.121 216.563 127.222 217.937 127.422 219.047C127.64 220.158 128.068 221.05 128.705 221.723C129.36 222.397 130.307 222.734 131.545 222.734C132.764 222.734 133.693 222.397 134.33 221.723C134.985 221.05 135.413 220.158 135.613 219.047C135.832 217.937 135.941 216.563 135.941 214.924Z" fill="white"/>
<defs>
<clipPath id="clip0_101_605">
<rect width="223.934" height="155.261" fill="white"/>
</clipPath>
</defs>
</svg>
