<svg width="1851" height="531" viewBox="0 0 1851 531" fill="none" xmlns="http://www.w3.org/2000/svg">
<g opacity="0.7">
<mask id="mask0_77_1196" style="mask-type:alpha" maskUnits="userSpaceOnUse" x="-69" y="0" width="1920" height="531">
<rect x="1851" y="531" width="1920" height="531" transform="rotate(180 1851 531)" fill="#161623" fill-opacity="0.2"/>
</mask>
<g mask="url(#mask0_77_1196)">
<path d="M199.18 375.868L242.751 400.941V451.322L199.278 476.434H199.18L155.707 451.322V400.941H155.805L199.18 375.868ZM242.38 401.234L199.18 376.298L156 401.234V451.107L199.18 476.044L242.38 451.107V401.234Z" fill="#95B9FF"/>
<path d="M112.429 375.868H112.527L156 400.941V451.322H155.902L112.429 476.434H112.332L68.8584 451.322V400.941L112.429 375.868ZM155.61 401.234L112.429 376.298L69.2292 401.234V451.107L112.429 476.044L155.61 451.107V401.234Z" fill="#95B9FF"/>
<path d="M25.6775 375.868L69.2287 400.941V451.322H69.1312L25.6775 476.434H25.5799L-17.8932 451.322V400.941H-17.7956L25.6775 375.868ZM68.858 401.234L25.6775 376.298L-17.5225 401.234V451.107L25.6775 476.044L68.858 451.107V401.234Z" fill="#95B9FF"/>
<path d="M155.805 300.746H155.902L199.375 325.898V376.2H199.278L155.805 401.293L112.332 376.2V325.898L155.805 300.746ZM198.985 326.112L155.805 301.176L112.546 326.112V375.985L155.805 400.941L198.985 375.985V326.112Z" fill="#95B9FF"/>
<path d="M69.0535 300.746L112.546 325.898V376.2L69.073 401.293H68.9754L25.5023 376.2V325.898H25.5999L69.0535 300.746ZM112.234 326.112L69.0535 301.176L25.8535 326.112V375.985L69.0535 400.941L112.234 376.005V326.112Z" fill="#95B9FF"/>
<path d="M-17.7176 300.746H-17.62L25.8531 325.858V376.2H25.7556L-17.7176 401.293L-61.1908 376.2V325.898L-17.7176 300.746ZM25.4824 326.112L-17.7176 301.176L-60.8981 326.112V375.985L-17.7176 400.941L25.4824 376.005V326.112Z" fill="#95B9FF"/>
<path d="M25.6775 225.605L69.2287 250.697V301.058H69.1312L25.6775 326.151H25.5799L-17.8932 301.039V250.697H-17.7956L25.6775 225.605ZM68.858 250.971L25.6775 226.034L-17.5225 250.971V300.844L25.6775 325.78L68.858 300.844V250.971Z" fill="#95B9FF"/>
<path d="M-17.7176 150.463H-17.62L25.8531 175.556V225.937H25.7556L-17.7176 251.029L-61.1908 225.937V175.615L-17.7176 150.463ZM25.4824 175.829L-17.7176 150.893L-60.8981 175.829V225.722L-17.7176 250.698L25.4824 225.722V175.829Z" fill="#95B9FF"/>
<path d="M38.9457 557V514.327L94.4969 482.249L150.048 514.327V557H151.999V513.195L94.4969 479.985L36.9749 513.195V557H38.9457Z" fill="#95B9FF"/>
<path d="M-74.1274 557V514.327L-18.5761 482.249L36.9751 514.327V557H38.9458V513.195L-18.5761 479.985L-76.0981 513.195V557H-74.1274Z" fill="#95B9FF"/>
<path d="M37.9706 382.053L95.473 415.224V481.566L37.9706 514.736L-19.5514 481.566V415.224L37.9706 382.053ZM93.5218 416.395L37.9706 384.336L-17.5806 416.395V480.551L37.9706 512.629L93.5218 480.551V416.395Z" fill="#95B9FF"/>
<path d="M-18.5762 284.142L38.9458 317.313V383.654L-18.5762 416.825L-76.0786 383.654V317.313L-18.5762 284.142ZM36.9751 318.483L-18.5762 286.405L-74.1274 318.483V382.62L-18.5762 414.6L36.9751 382.522V318.483Z" fill="#95B9FF"/>
<path d="M-14.6542 -103L36.9751 -73.1853V-9.04874L-18.5761 23.0293L-74.1274 -9.04874V-73.1853L-22.4981 -103H-26.4201L-76.0981 -74.3365V-7.917L-18.5761 25.2927L38.9458 -7.917V-74.3365L-10.7322 -103H-14.6542Z" fill="#95B9FF"/>
<path d="M285.931 475.732C285.793 475.737 285.662 475.794 285.564 475.892C285.466 475.989 285.409 476.121 285.404 476.259C285.404 476.399 285.46 476.533 285.559 476.631C285.658 476.73 285.792 476.786 285.931 476.786C286.071 476.786 286.205 476.73 286.304 476.631C286.403 476.533 286.458 476.399 286.458 476.259C286.453 476.121 286.396 475.989 286.298 475.892C286.201 475.794 286.069 475.737 285.931 475.732Z" fill="#95B9FF"/>
<path d="M242.556 457.195C243.742 457.199 244.903 456.851 245.891 456.194C246.879 455.537 247.65 454.602 248.106 453.506C248.562 452.411 248.682 451.205 248.451 450.041C248.221 448.877 247.65 447.808 246.811 446.969C245.972 446.13 244.903 445.559 243.739 445.329C242.575 445.098 241.369 445.219 240.274 445.675C239.179 446.13 238.243 446.901 237.587 447.889C236.93 448.877 236.581 450.038 236.585 451.225C236.585 452.808 237.214 454.327 238.334 455.447C239.454 456.566 240.972 457.195 242.556 457.195Z" fill="#95B9FF"/>
<path d="M242.556 397.39C241.815 397.39 241.09 397.61 240.474 398.022C239.858 398.433 239.378 399.018 239.094 399.703C238.811 400.388 238.737 401.141 238.881 401.868C239.026 402.594 239.383 403.262 239.906 403.786C240.43 404.31 241.098 404.667 241.825 404.811C242.551 404.956 243.305 404.881 243.989 404.598C244.674 404.314 245.259 403.834 245.671 403.218C246.082 402.602 246.302 401.878 246.302 401.137C246.302 400.645 246.205 400.158 246.017 399.703C245.828 399.249 245.552 398.836 245.205 398.488C244.857 398.14 244.444 397.864 243.989 397.676C243.535 397.487 243.048 397.39 242.556 397.39Z" fill="#95B9FF"/>
<path d="M199.18 372.727C198.512 372.727 197.858 372.925 197.303 373.297C196.747 373.669 196.314 374.197 196.06 374.815C195.805 375.433 195.739 376.113 195.871 376.768C196.003 377.424 196.326 378.025 196.8 378.496C197.274 378.968 197.877 379.288 198.534 379.416C199.19 379.544 199.869 379.474 200.485 379.216C201.102 378.957 201.628 378.521 201.996 377.964C202.365 377.406 202.56 376.752 202.556 376.083C202.55 375.191 202.193 374.338 201.56 373.709C200.928 373.08 200.072 372.727 199.18 372.727Z" fill="#95B9FF"/>
<path d="M199.18 474.542C198.221 474.542 197.444 475.319 197.444 476.278C197.444 477.237 198.221 478.015 199.18 478.015C200.139 478.015 200.917 477.237 200.917 476.278C200.917 475.319 200.139 474.542 199.18 474.542Z" fill="#95B9FF"/>
<path d="M155.804 447.771C155.125 447.771 154.461 447.972 153.896 448.35C153.331 448.727 152.891 449.263 152.631 449.891C152.371 450.518 152.303 451.209 152.436 451.875C152.568 452.541 152.896 453.153 153.376 453.633C153.856 454.114 154.468 454.441 155.134 454.573C155.8 454.706 156.491 454.638 157.118 454.378C157.746 454.118 158.282 453.678 158.66 453.113C159.037 452.548 159.238 451.884 159.238 451.205C159.238 450.294 158.876 449.421 158.232 448.777C157.588 448.133 156.715 447.771 155.804 447.771Z" fill="#95B9FF"/>
<path d="M155.804 407.166C156.997 407.166 158.162 406.812 159.154 406.15C160.145 405.487 160.918 404.546 161.375 403.444C161.831 402.342 161.95 401.13 161.718 399.96C161.485 398.791 160.911 397.716 160.068 396.873C159.224 396.03 158.15 395.456 156.981 395.223C155.811 394.99 154.599 395.11 153.497 395.566C152.395 396.023 151.454 396.795 150.791 397.787C150.129 398.778 149.775 399.944 149.775 401.137C149.78 402.734 150.417 404.265 151.547 405.394C152.676 406.524 154.207 407.161 155.804 407.166Z" fill="#95B9FF"/>
<path d="M112.429 473.722C111.921 473.718 111.424 473.865 111.001 474.145C110.578 474.424 110.247 474.823 110.051 475.291C109.855 475.759 109.803 476.274 109.901 476.772C109.999 477.27 110.243 477.727 110.602 478.085C110.96 478.444 111.418 478.688 111.915 478.786C112.413 478.884 112.928 478.832 113.396 478.636C113.864 478.44 114.263 478.109 114.542 477.686C114.822 477.263 114.969 476.766 114.965 476.259C114.965 475.586 114.698 474.941 114.222 474.465C113.746 473.989 113.101 473.722 112.429 473.722Z" fill="#95B9FF"/>
<path d="M69.0532 446.541C68.127 446.541 67.2216 446.816 66.4515 447.331C65.6814 447.845 65.0812 448.577 64.7267 449.432C64.3723 450.288 64.2795 451.23 64.4602 452.138C64.6409 453.046 65.0869 453.881 65.7418 454.536C66.3968 455.191 67.2312 455.637 68.1396 455.817C69.048 455.998 69.9895 455.905 70.8452 455.551C71.7009 455.196 72.4323 454.596 72.9469 453.826C73.4614 453.056 73.7361 452.15 73.7361 451.224C73.7387 450.609 73.6193 449.999 73.3849 449.429C73.1505 448.86 72.8056 448.343 72.3703 447.907C71.9349 447.472 71.4176 447.127 70.8483 446.893C70.279 446.658 69.6689 446.539 69.0532 446.541Z" fill="#95B9FF"/>
<path d="M69.0341 395.556C65.9521 395.556 63.4536 398.055 63.4536 401.137C63.4536 404.219 65.9521 406.717 69.0341 406.717C72.1161 406.717 74.6146 404.219 74.6146 401.137C74.6146 398.055 72.1161 395.556 69.0341 395.556Z" fill="#95B9FF"/>
<path d="M25.6779 473.351C25.0999 473.359 24.5372 473.538 24.0606 473.865C23.5841 474.192 23.215 474.653 23 475.189C22.7851 475.726 22.7338 476.314 22.8527 476.88C22.9716 477.446 23.2553 477.963 23.6681 478.368C24.0809 478.773 24.6043 479.046 25.1722 479.154C25.7401 479.261 26.3272 479.198 26.8594 478.972C27.3915 478.747 27.845 478.369 28.1625 477.886C28.4801 477.403 28.6475 476.837 28.6437 476.259C28.6412 475.873 28.5623 475.491 28.4116 475.135C28.261 474.78 28.0415 474.458 27.7658 474.188C27.4902 473.918 27.1638 473.704 26.8054 473.561C26.4471 473.417 26.0639 473.346 25.6779 473.351Z" fill="#95B9FF"/>
<path d="M199.18 321.469C198.284 321.469 197.409 321.734 196.665 322.232C195.92 322.729 195.34 323.436 194.998 324.263C194.655 325.09 194.565 326.001 194.74 326.879C194.915 327.757 195.346 328.563 195.979 329.196C196.612 329.83 197.419 330.261 198.297 330.435C199.175 330.61 200.085 330.52 200.912 330.178C201.739 329.835 202.446 329.255 202.944 328.511C203.441 327.766 203.707 326.891 203.707 325.996C203.707 324.795 203.23 323.644 202.381 322.795C201.532 321.946 200.38 321.469 199.18 321.469Z" fill="#95B9FF"/>
<path d="M112.429 378.405C112.888 378.405 113.337 378.269 113.719 378.014C114.101 377.759 114.398 377.396 114.574 376.972C114.75 376.548 114.796 376.081 114.706 375.63C114.617 375.18 114.395 374.766 114.071 374.441C113.746 374.117 113.332 373.896 112.882 373.806C112.431 373.716 111.965 373.762 111.54 373.938C111.116 374.114 110.753 374.411 110.498 374.793C110.243 375.175 110.107 375.624 110.107 376.083C110.104 376.389 110.163 376.692 110.278 376.975C110.394 377.258 110.565 377.515 110.781 377.731C110.997 377.947 111.254 378.118 111.537 378.234C111.82 378.35 112.123 378.408 112.429 378.405Z" fill="#95B9FF"/>
<path d="M112.428 321.703C111.579 321.703 110.749 321.954 110.044 322.426C109.338 322.898 108.787 323.568 108.463 324.353C108.138 325.137 108.053 326 108.218 326.833C108.384 327.665 108.793 328.43 109.393 329.031C109.993 329.631 110.758 330.04 111.591 330.205C112.424 330.371 113.287 330.286 114.071 329.961C114.856 329.636 115.526 329.086 115.998 328.38C116.469 327.674 116.721 326.844 116.721 325.995C116.721 324.857 116.269 323.765 115.464 322.96C114.659 322.155 113.567 321.703 112.428 321.703Z" fill="#95B9FF"/>
<path d="M69.0337 298.249C67.5358 298.249 66.3215 299.463 66.3215 300.961C66.3215 302.459 67.5358 303.673 69.0337 303.673C70.5316 303.673 71.7459 302.459 71.7459 300.961C71.7459 299.463 70.5316 298.249 69.0337 298.249Z" fill="#95B9FF"/>
<path d="M25.6779 382.424C26.9321 382.424 28.1582 382.053 29.201 381.356C30.2439 380.659 31.0567 379.669 31.5366 378.51C32.0166 377.351 32.1422 376.076 31.8975 374.846C31.6528 373.616 31.0489 372.486 30.162 371.599C29.2751 370.712 28.1452 370.108 26.9151 369.863C25.6849 369.619 24.4099 369.744 23.2511 370.224C22.0924 370.704 21.1019 371.517 20.4051 372.56C19.7083 373.603 19.3365 374.829 19.3365 376.083C19.3339 376.917 19.4961 377.742 19.8139 378.513C20.1317 379.283 20.5987 379.983 21.1881 380.573C21.7774 381.162 22.4775 381.629 23.2481 381.947C24.0186 382.265 24.8444 382.427 25.6779 382.424Z" fill="#95B9FF"/>
<path d="M152.195 300.961C152.195 301.675 152.407 302.373 152.803 302.966C153.2 303.56 153.764 304.023 154.423 304.296C155.083 304.569 155.809 304.64 156.509 304.501C157.209 304.362 157.852 304.018 158.357 303.513C158.862 303.008 159.206 302.365 159.345 301.665C159.484 300.965 159.413 300.239 159.14 299.579C158.867 298.92 158.404 298.356 157.81 297.959C157.217 297.563 156.519 297.351 155.805 297.351C155.33 297.348 154.859 297.44 154.42 297.621C153.981 297.801 153.582 298.067 153.246 298.403C152.911 298.738 152.645 299.137 152.464 299.576C152.284 300.015 152.192 300.486 152.195 300.961Z" fill="#95B9FF"/>
<path d="M25.6583 323.088C24.0527 323.088 22.751 324.39 22.751 325.995C22.751 327.601 24.0527 328.903 25.6583 328.903C27.264 328.903 28.5657 327.601 28.5657 325.995C28.5657 324.39 27.264 323.088 25.6583 323.088Z" fill="#95B9FF"/>
<path d="M69.0532 255.498C69.9725 255.498 70.8711 255.225 71.6352 254.713C72.3993 254.202 72.9945 253.476 73.3455 252.626C73.6964 251.776 73.7872 250.842 73.6064 249.94C73.4256 249.039 72.9814 248.212 72.33 247.563C71.6786 246.914 70.8493 246.473 69.9472 246.297C69.0451 246.12 68.1107 246.214 67.2625 246.569C66.4143 246.923 65.6904 247.522 65.1824 248.288C64.6745 249.054 64.4054 249.954 64.4093 250.873C64.4093 251.482 64.5295 252.085 64.7632 252.647C64.9968 253.21 65.3392 253.72 65.7707 254.15C66.2021 254.58 66.7142 254.92 67.2775 255.151C67.8409 255.382 68.4443 255.5 69.0532 255.498Z" fill="#95B9FF"/>
<path d="M30.4778 225.82C30.4778 224.866 30.1946 223.933 29.6641 223.14C29.1337 222.347 28.3799 221.729 27.4981 221.365C26.6163 221.001 25.6462 220.907 24.7108 221.094C23.7754 221.282 22.9167 221.743 22.2435 222.419C21.5702 223.095 21.1127 223.955 20.929 224.891C20.7452 225.828 20.8434 226.797 21.2112 227.677C21.579 228.558 22.1998 229.309 22.9949 229.836C23.7901 230.364 24.7238 230.643 25.6778 230.639C26.9526 230.634 28.1735 230.124 29.0731 229.221C29.9727 228.317 30.4778 227.094 30.4778 225.82Z" fill="#95B9FF"/>
<path d="M25.6577 171.947C23.5671 171.947 21.8724 173.641 21.8724 175.732C21.8724 177.822 23.5671 179.517 25.6577 179.517C27.7483 179.517 29.4431 177.822 29.4431 175.732C29.4431 173.641 27.7483 171.947 25.6577 171.947Z" fill="#95B9FF"/>
<g style="mix-blend-mode:multiply" opacity="0.2">
<path d="M150.595 557V504.005L203.317 473.566L256.019 504.005V557H256.488V503.732L203.434 473.098L203.317 473.039L150.244 503.673L150.146 503.732V557H150.595Z" fill="#95B9FF"/>
<path d="M44.7023 557V504.005L97.4242 473.566L150.146 504.005V557H150.595V503.732L97.5413 473.098L97.4242 473.039L44.3511 503.673L44.2535 503.732V557H44.7023Z" fill="#95B9FF"/>
<path d="M-61.1904 557V504.005L-8.46844 473.566L44.2535 504.005V557H44.7023V503.732L-8.35137 473.098L-8.46844 473.039L-61.5221 503.673L-61.6392 503.732V557H-61.1904Z" fill="#95B9FF"/>
<path d="M44.4879 381.332H44.6049L97.6586 411.966V473.429H97.5415L44.4879 504.064H44.3708L-8.68285 473.429V412.025H-8.58525L44.4879 381.332ZM97.1708 412.298L44.4879 381.859L-8.19505 412.298V473.137L44.4879 503.556L97.1708 473.137V412.298Z" fill="#95B9FF"/>
<path d="M-8.42985 289.625H-8.31278L44.7604 320.259V381.722H44.6433L-8.42985 412.356H-8.54692L-61.6006 381.722V320.337H-61.4835L-8.42985 289.625ZM44.2531 320.59L-8.42985 290.151L-61.1128 320.59V381.429L-8.42985 411.869L44.2531 381.429V320.59Z" fill="#95B9FF"/>
<path d="M-8.42985 -77.1072H-8.31278L44.7604 -46.4731V14.9122H44.6433L-8.42985 45.6245H-8.54692L-61.6006 14.9903V-46.4146H-61.4835L-8.42985 -77.1072ZM44.2531 -46.1414L-8.42985 -76.5804L-61.1128 -46.1414V14.6001L-8.42985 45.0196L44.2531 14.6001V-46.1414Z" fill="#95B9FF"/>
<path d="M-77.3271 557V494.698L-9.52225 455.556L58.2826 494.698V557H60.6826V493.312L-9.52225 452.785L-79.7076 493.312V557H-77.3271Z" fill="#95B9FF"/>
<path d="M-9.50216 -25.2831L60.7417 15.2438V96.3169L-9.50216 136.844L-79.746 96.3169V15.2438L-9.50216 -25.2831ZM58.3027 16.551L-9.50216 -22.4733L-77.307 16.551V94.9315L-9.50216 134.073L58.3027 94.9315V16.551Z" fill="#95B9FF"/>
<path d="M127.297 -94.7071V-24.5803L59.4926 14.5612L-8.31227 -24.5803V-94.7071H-10.7123V-23.195L59.4926 17.3319L129.697 -23.195V-94.7071H127.297Z" fill="#95B9FF"/>
<path d="M256.253 498.347C253.204 498.347 250.731 500.819 250.731 503.868C250.731 506.918 253.204 509.39 256.253 509.39C259.303 509.39 261.775 506.918 261.775 503.868C261.775 500.819 259.303 498.347 256.253 498.347Z" fill="#95B9FF"/>
<path d="M150.38 498.639C149.346 498.639 148.335 498.946 147.475 499.52C146.615 500.095 145.945 500.912 145.549 501.867C145.153 502.823 145.049 503.874 145.251 504.888C145.453 505.903 145.951 506.835 146.682 507.566C147.414 508.297 148.345 508.795 149.36 508.997C150.374 509.199 151.426 509.095 152.381 508.699C153.337 508.304 154.153 507.633 154.728 506.773C155.303 505.913 155.609 504.902 155.609 503.868C155.609 502.481 155.058 501.151 154.078 500.171C153.097 499.19 151.767 498.639 150.38 498.639Z" fill="#95B9FF"/>
<path d="M97.4241 470.015C95.6029 470.015 94.1266 471.491 94.1266 473.312C94.1266 475.133 95.6029 476.61 97.4241 476.61C99.2453 476.61 100.722 475.133 100.722 473.312C100.722 471.491 99.2453 470.015 97.4241 470.015Z" fill="#95B9FF"/>
<path d="M198.927 473.292C198.923 474.166 199.179 475.022 199.662 475.75C200.145 476.478 200.833 477.046 201.64 477.382C202.447 477.719 203.335 477.807 204.192 477.638C205.049 477.468 205.837 477.048 206.455 476.43C207.073 475.812 207.493 475.025 207.662 474.168C207.832 473.31 207.743 472.422 207.407 471.615C207.071 470.809 206.502 470.12 205.774 469.637C205.046 469.154 204.191 468.898 203.317 468.902C202.154 468.907 201.041 469.372 200.218 470.194C199.396 471.016 198.932 472.13 198.927 473.292Z" fill="#95B9FF"/>
<path d="M44.4685 500.317C42.5072 500.317 40.9173 501.907 40.9173 503.868C40.9173 505.83 42.5072 507.42 44.4685 507.42C46.4298 507.42 48.0197 505.83 48.0197 503.868C48.0197 501.907 46.4298 500.317 44.4685 500.317Z" fill="#95B9FF"/>
<path d="M97.4241 406.502C94.2989 406.502 91.7655 409.036 91.7655 412.161C91.7655 415.286 94.2989 417.819 97.4241 417.819C100.549 417.819 103.083 415.286 103.083 412.161C103.083 409.036 100.549 406.502 97.4241 406.502Z" fill="#95B9FF"/>
<path d="M50.3606 381.605C50.3606 380.447 50.0173 379.316 49.3741 378.353C48.7309 377.39 47.8166 376.64 46.747 376.197C45.6774 375.754 44.5004 375.638 43.3649 375.864C42.2294 376.09 41.1864 376.647 40.3678 377.466C39.5491 378.285 38.9916 379.328 38.7657 380.463C38.5399 381.599 38.6558 382.776 39.0989 383.845C39.5419 384.915 40.2922 385.829 41.2548 386.472C42.2174 387.115 43.3492 387.459 44.5069 387.459C46.0594 387.459 47.5483 386.842 48.6461 385.744C49.7439 384.647 50.3606 383.158 50.3606 381.605Z" fill="#95B9FF"/>
<path d="M44.4881 325.078C45.4027 325.078 46.2968 324.807 47.0573 324.299C47.8178 323.79 48.4105 323.068 48.7605 322.223C49.1105 321.378 49.2021 320.448 49.0236 319.551C48.8452 318.654 48.4048 317.83 47.758 317.184C47.1113 316.537 46.2873 316.096 45.3903 315.918C44.4932 315.74 43.5634 315.831 42.7184 316.181C41.8734 316.531 41.1512 317.124 40.6431 317.884C40.1349 318.645 39.8637 319.539 39.8637 320.454C39.8637 321.68 40.3509 322.856 41.2182 323.723C42.0854 324.591 43.2616 325.078 44.4881 325.078Z" fill="#95B9FF"/>
<path d="M44.488 10.2293C43.5888 10.2293 42.7098 10.4959 41.9622 10.9955C41.2146 11.495 40.6319 12.2052 40.2878 13.0359C39.9437 13.8666 39.8536 14.7807 40.0291 15.6626C40.2045 16.5445 40.6375 17.3546 41.2733 17.9904C41.9091 18.6262 42.7192 19.0593 43.6011 19.2347C44.483 19.4101 45.3971 19.32 46.2278 18.9759C47.0586 18.6318 47.7686 18.0491 48.2682 17.3014C48.7677 16.5538 49.0344 15.6749 49.0344 14.7757C49.0344 13.57 48.5554 12.4135 47.7028 11.5609C46.8502 10.7083 45.6938 10.2293 44.488 10.2293Z" fill="#95B9FF"/>
</g>
</g>
</g>
</svg>
