<svg width="162" height="46" viewBox="0 0 162 46" fill="none" xmlns="http://www.w3.org/2000/svg">
<path d="M15.9793 45.8082C13.9252 45.8082 12.1696 45.0797 10.7126 43.6227C9.25557 42.1657 8.50318 40.434 8.45541 38.4277C6.25796 38.0455 4.41879 36.9707 2.9379 35.2031C1.45701 33.4356 0.71656 31.3576 0.71656 28.9691C0.71656 28.1289 0.824045 27.2988 1.03901 26.4786C1.25398 25.6584 1.57643 24.8883 2.00637 24.1681C1.33758 23.3082 0.835987 22.3817 0.501592 21.3886C0.167197 20.3954 0 19.3155 0 18.149C0 15.7102 0.824045 13.5957 2.47213 11.8055C4.12022 10.0154 6.16242 9.00091 8.59873 8.76206C8.59873 8.57097 8.58678 8.37989 8.5629 8.18881C8.53901 7.99773 8.52707 7.78276 8.52707 7.5439C8.52707 5.44199 9.24363 3.67448 10.6768 2.24136C12.1099 0.808235 13.8774 0.0916748 15.9793 0.0916748C17.4602 0.0916748 18.6664 0.378299 19.5979 0.951547C20.5295 1.5248 21.4968 2.40855 22.5 3.60282C23.551 2.40855 24.5183 1.5248 25.4021 0.951547C26.2858 0.378299 27.492 0.0916748 29.0207 0.0916748C31.0071 0.0916748 32.7219 0.820178 34.165 2.27718C35.6081 3.73419 36.3296 5.48976 36.3296 7.5439V8.22464C36.3296 8.4396 36.3057 8.61874 36.258 8.76206C38.6943 8.95314 40.7603 9.94438 42.4562 11.7358C44.1521 13.5272 45 15.6649 45 18.149C45 19.3155 44.8089 20.4073 44.4268 21.4244C44.0446 22.4414 43.543 23.356 42.922 24.1681C43.3519 24.9324 43.6863 25.7253 43.9252 26.5467C44.164 27.368 44.2834 28.2232 44.2834 29.1124C44.2834 31.5009 43.543 33.567 42.0621 35.3106C40.5812 37.0543 38.7182 38.0933 36.4729 38.4277C36.4252 40.434 35.6847 42.1657 34.2516 43.6227C32.8185 45.0797 31.0987 45.8082 29.0924 45.8082C27.4682 45.8082 26.2261 45.5216 25.3662 44.9484C24.5064 44.3751 23.551 43.4675 22.5 42.2254C21.449 43.4675 20.4817 44.3751 19.5979 44.9484C18.7142 45.5216 17.508 45.8082 15.9793 45.8082ZM23.2882 7.32894V38.571C23.2882 40.1436 23.8534 41.4802 24.9839 42.5808C26.1144 43.6815 27.4941 44.2318 29.1231 44.2318C30.679 44.2318 32.0064 43.6824 33.1051 42.5837C34.2038 41.485 34.801 40.1952 34.8965 38.7143C33.3201 38.6665 31.8631 38.2843 30.5255 37.5678C29.1879 36.8512 28.0892 35.8719 27.2293 34.6299C27.0382 34.4866 26.9647 34.3114 27.0087 34.1044C27.0527 33.8974 27.174 33.7143 27.3726 33.555C27.5637 33.4117 27.7718 33.3621 27.997 33.4061C28.2223 33.4501 28.3963 33.5714 28.5191 33.77C29.2198 34.8369 30.1354 35.641 31.2659 36.1825C32.3965 36.7238 33.5828 36.9945 34.8248 36.9945C37.0701 36.9945 38.9451 36.2421 40.4498 34.7374C41.9546 33.2326 42.707 31.3576 42.707 29.1124C42.707 28.4595 42.6353 27.8305 42.492 27.2255C42.3487 26.6203 42.1338 26.0073 41.8471 25.3863C41.035 26.1028 40.0892 26.6641 39.0096 27.0702C37.9299 27.4762 36.7978 27.6793 35.6131 27.6793C35.3766 27.6793 35.1861 27.6068 35.0416 27.4618C34.8971 27.3168 34.8248 27.1257 34.8248 26.8885C34.8248 26.6513 34.8971 26.4611 35.0416 26.3178C35.1861 26.1745 35.3766 26.1028 35.6131 26.1028C37.8105 26.1028 39.6616 25.3385 41.1664 23.8098C42.6712 22.2812 43.4236 20.3942 43.4236 18.149C43.4236 16.0259 42.6831 14.2053 41.2022 12.6872C39.7213 11.1692 37.9299 10.3624 35.828 10.2668C35.4459 11.27 34.8726 12.1418 34.1083 12.8823C33.3439 13.6227 32.4602 14.184 31.457 14.5662C31.2659 14.614 31.0714 14.606 30.8735 14.5423C30.6756 14.4786 30.5596 14.3433 30.5255 14.1363C30.4777 13.9452 30.4777 13.7541 30.5255 13.563C30.5732 13.3719 30.7166 13.2286 30.9554 13.1331C32.1497 12.7031 33.0812 11.9746 33.75 10.9476C34.4188 9.9205 34.7532 8.774 34.7532 7.50808C34.7532 5.90776 34.1905 4.53435 33.0653 3.38785C31.9399 2.24136 30.5904 1.66811 29.0167 1.66811C27.4429 1.66811 26.0947 2.21842 24.9721 3.31906C23.8495 4.4197 23.2882 5.75632 23.2882 7.32894ZM21.7118 38.571V7.32894C21.7118 5.75632 21.1491 4.4197 20.0239 3.31906C18.8985 2.21842 17.549 1.66811 15.9753 1.66811C14.4015 1.66811 13.0414 2.24231 11.8949 3.39072C10.7484 4.53913 10.1752 5.92352 10.1752 7.5439C10.1752 8.83371 10.5215 9.98021 11.2142 10.9834C11.9068 11.9866 12.8264 12.6793 13.9729 13.0614C14.2118 13.157 14.379 13.3003 14.4745 13.4914C14.5701 13.6824 14.598 13.8787 14.5584 14.0802C14.4536 14.2816 14.2939 14.425 14.0796 14.5101C13.8652 14.5953 13.6385 14.5901 13.3997 14.4945C12.3965 14.1124 11.5247 13.563 10.7842 12.8465C10.0438 12.1299 9.4586 11.27 9.02866 10.2668C6.97452 10.4101 5.21895 11.2342 3.76194 12.739C2.30494 14.2437 1.57643 16.0548 1.57643 18.1721C1.57643 20.4019 2.32882 22.2812 3.8336 23.8098C5.33838 25.3385 7.18949 26.1028 9.38694 26.1028C9.62341 26.1028 9.81389 26.1753 9.9584 26.3203C10.1029 26.4653 10.1752 26.6564 10.1752 26.8935C10.1752 27.1307 10.1029 27.321 9.9584 27.4643C9.81389 27.6076 9.62341 27.6793 9.38694 27.6793C8.20223 27.6793 7.07006 27.4762 5.99045 27.0702C4.91083 26.6641 3.96497 26.1028 3.15287 25.3863C2.86624 26.0073 2.65127 26.6084 2.50796 27.1896C2.36465 27.7708 2.29299 28.3878 2.29299 29.0407C2.29299 31.2859 3.04538 33.1729 4.55016 34.7015C6.05494 36.2302 7.90605 36.9945 10.1035 36.9945C11.4075 36.9945 12.6053 36.7079 13.6969 36.1347C14.7886 35.5614 15.7166 34.7732 16.4809 33.77C16.6037 33.6192 16.7777 33.5098 17.003 33.4419C17.2282 33.374 17.4363 33.3998 17.6274 33.5192C17.7707 33.6864 17.8662 33.8775 17.914 34.0925C17.9618 34.3074 17.914 34.4866 17.7707 34.6299C16.8631 35.8719 15.7404 36.8512 14.4029 37.5678C13.0653 38.2843 11.6322 38.6426 10.1035 38.6426C10.1513 40.1713 10.7484 41.485 11.8949 42.5837C13.0414 43.6824 14.3926 44.2318 15.9486 44.2318C17.5298 44.2318 18.8856 43.6815 20.0161 42.5808C21.1466 41.4802 21.7118 40.1436 21.7118 38.571Z" fill="#9B9BF2"/>
<circle cx="22.93" cy="23.0216" r="12.1815" fill="#0A0A10" stroke="white" stroke-width="1.43312"/>
<path d="M67.1317 32.0618V12.5828H75.3407C77.4185 12.5828 79.2458 12.9909 80.8227 13.8072C82.4181 14.6234 83.6518 15.7643 84.5237 17.2299C85.4142 18.6955 85.8594 20.3929 85.8594 22.3223C85.8594 24.2516 85.4142 25.9491 84.5237 27.4146C83.6518 28.8802 82.4181 30.0211 80.8227 30.8374C79.2458 31.6536 77.4185 32.0618 75.3407 32.0618H67.1317ZM69.9144 29.6408H75.1738C76.7877 29.6408 78.1791 29.3347 79.3478 28.7225C80.5351 28.1103 81.4534 27.2569 82.1027 26.1624C82.752 25.0493 83.0767 23.7693 83.0767 22.3223C83.0767 20.8567 82.752 19.5766 82.1027 18.4821C81.4534 17.3876 80.5351 16.5342 79.3478 15.922C78.1791 15.3098 76.7877 15.0037 75.1738 15.0037H69.9144V29.6408ZM92.654 20.9866H102.672V23.3519H92.654V20.9866ZM92.9045 29.6408H104.258V32.0618H90.1217V12.5828H103.868V15.0037H92.9045V29.6408ZM105.986 32.0618L114.084 21.0144V23.1571L106.431 12.5828H109.604L115.67 20.9031L114.418 20.9309L120.456 12.5828H123.49L115.893 22.9901V20.9866L123.99 32.0618H120.79L114.334 23.1849H115.559L109.186 32.0618H105.986Z" fill="white"/>
<path d="M131.793 32.0618L140.615 12.5828H143.369L152.218 32.0618H149.297L141.422 14.1411H142.535L134.66 32.0618H131.793ZM135.55 27.192L136.301 24.9658H147.265L148.072 27.192H135.55ZM155.124 32.0618V12.5828H157.907V32.0618H155.124Z" fill="#9B9BF2"/>
<circle cx="67.8395" cy="13.5309" r="4.23457" fill="#0A0A10" stroke="white" stroke-width="1.20988"/>
</svg>
