<svg width="163" height="25" viewBox="0 0 163 25" fill="none" xmlns="http://www.w3.org/2000/svg">
<path d="M45.3783 20L40.647 5.84657H42.7296L47.0767 18.9082H46.0253L50.5342 5.84657H52.3944L56.8021 18.9082H55.7912L60.199 5.84657H62.1198L57.3885 20H55.2655L51.1408 7.88871H51.6867L47.5418 20H45.3783ZM70.3283 9.18274C71.2045 9.18274 71.9728 9.35123 72.6333 9.68822C73.3073 10.0252 73.8329 10.5374 74.2104 11.2249C74.5878 11.9123 74.7765 12.7818 74.7765 13.8332V20H72.8355V14.0556C72.8355 13.0176 72.5794 12.2358 72.0671 11.7101C71.5684 11.1844 70.8607 10.9216 69.9441 10.9216C69.2567 10.9216 68.6568 11.0564 68.1446 11.326C67.6324 11.5956 67.2348 11.9932 66.9517 12.5189C66.6821 13.0446 66.5473 13.6984 66.5473 14.4802V20H64.6063V4.99737H66.5473V12.1752L66.1631 11.4068C66.5136 10.7059 67.0528 10.16 67.7807 9.7691C68.5086 9.37819 69.3578 9.18274 70.3283 9.18274ZM78.3687 20V9.28384H80.3098V20H78.3687ZM79.3393 7.22148C78.9618 7.22148 78.6451 7.10016 78.389 6.85753C78.1463 6.6149 78.025 6.31836 78.025 5.96789C78.025 5.60395 78.1463 5.30066 78.389 5.05803C78.6451 4.8154 78.9618 4.69408 79.3393 4.69408C79.7167 4.69408 80.0267 4.8154 80.2693 5.05803C80.5254 5.28718 80.6535 5.57699 80.6535 5.92745C80.6535 6.2914 80.5322 6.60142 80.2896 6.85753C80.0469 7.10016 79.7302 7.22148 79.3393 7.22148ZM87.6958 20.1213C86.6174 20.1213 85.7817 19.8315 85.1886 19.2519C84.5955 18.6723 84.299 17.8433 84.299 16.7649V6.93841H86.24V16.6841C86.24 17.2637 86.3815 17.7085 86.6646 18.0185C86.9611 18.3285 87.379 18.4836 87.9182 18.4836C88.5248 18.4836 89.0302 18.3151 89.4346 17.9781L90.0412 19.3732C89.7447 19.6293 89.3874 19.818 88.9696 19.9393C88.5652 20.0607 88.1406 20.1213 87.6958 20.1213ZM82.4792 10.8812V9.28384H89.3133V10.8812H82.4792ZM96.8042 20.1213C95.6584 20.1213 94.6475 19.8854 93.7713 19.4136C92.9086 18.9419 92.2347 18.2948 91.7494 17.4726C91.2776 16.6504 91.0417 15.7068 91.0417 14.6419C91.0417 13.577 91.2709 12.6335 91.7292 11.8112C92.201 10.989 92.8412 10.3487 93.65 9.89041C94.4723 9.41863 95.3956 9.18274 96.42 9.18274C97.458 9.18274 98.3746 9.41189 99.1698 9.87019C99.9651 10.3285 100.585 10.9755 101.03 11.8112C101.488 12.6335 101.717 13.5973 101.717 14.7026C101.717 14.7835 101.711 14.8778 101.697 14.9856C101.697 15.0935 101.691 15.1946 101.677 15.2889H92.5582V13.8938H100.666L99.8775 14.3791C99.891 13.6916 99.7495 13.0783 99.4529 12.5391C99.1564 11.9999 98.7452 11.5821 98.2195 11.2855C97.7073 10.9755 97.1075 10.8205 96.42 10.8205C95.7461 10.8205 95.1462 10.9755 94.6205 11.2855C94.0948 11.5821 93.6837 12.0067 93.3872 12.5593C93.0906 13.0985 92.9423 13.7186 92.9423 14.4195V14.743C92.9423 15.4574 93.1041 16.0977 93.4276 16.6638C93.7646 17.2165 94.2296 17.6478 94.8227 17.9579C95.4158 18.2679 96.0965 18.4229 96.8649 18.4229C97.4984 18.4229 98.0713 18.3151 98.5835 18.0994C99.1092 17.8837 99.5675 17.5602 99.9584 17.1289L101.03 18.3825C100.545 18.9486 99.9382 19.3799 99.2103 19.6765C98.4959 19.973 97.6938 20.1213 96.8042 20.1213ZM110.094 20.1213C109.205 20.1213 108.389 19.9191 107.648 19.5147C106.92 19.0969 106.334 18.4836 105.889 17.6748C105.457 16.866 105.242 15.8551 105.242 14.6419C105.242 13.4288 105.451 12.4178 105.869 11.609C106.3 10.8003 106.88 10.1937 107.607 9.78932C108.349 9.38493 109.178 9.18274 110.094 9.18274C111.146 9.18274 112.076 9.41189 112.885 9.87019C113.693 10.3285 114.334 10.9688 114.805 11.791C115.277 12.5998 115.513 13.5501 115.513 14.6419C115.513 15.7338 115.277 16.6908 114.805 17.513C114.334 18.3353 113.693 18.9756 112.885 19.4339C112.076 19.8922 111.146 20.1213 110.094 20.1213ZM104.413 23.9225V9.28384H106.273V12.1752L106.152 14.6621L106.354 17.1491V23.9225H104.413ZM109.933 18.4229C110.62 18.4229 111.233 18.2679 111.773 17.9579C112.325 17.6478 112.757 17.2098 113.067 16.6436C113.39 16.064 113.552 15.3968 113.552 14.6419C113.552 13.8736 113.39 13.2131 113.067 12.6604C112.757 12.0943 112.325 11.6562 111.773 11.3462C111.233 11.0362 110.62 10.8812 109.933 10.8812C109.259 10.8812 108.645 11.0362 108.093 11.3462C107.553 11.6562 107.122 12.0943 106.799 12.6604C106.489 13.2131 106.334 13.8736 106.334 14.6419C106.334 15.3968 106.489 16.064 106.799 16.6436C107.122 17.2098 107.553 17.6478 108.093 17.9579C108.645 18.2679 109.259 18.4229 109.933 18.4229ZM124.748 20V17.7355L124.647 17.3108V13.449C124.647 12.6267 124.405 11.9932 123.919 11.5484C123.448 11.0901 122.733 10.8609 121.776 10.8609C121.143 10.8609 120.523 10.9688 119.916 11.1844C119.309 11.3866 118.797 11.663 118.379 12.0134L117.571 10.5576C118.123 10.1128 118.784 9.77584 119.552 9.54668C120.334 9.30405 121.149 9.18274 121.999 9.18274C123.468 9.18274 124.6 9.53995 125.395 10.2544C126.191 10.9688 126.588 12.0606 126.588 13.5299V20H124.748ZM121.23 20.1213C120.435 20.1213 119.734 19.9865 119.127 19.7169C118.534 19.4473 118.076 19.0767 117.753 18.6049C117.429 18.1196 117.267 17.5737 117.267 16.9671C117.267 16.3875 117.402 15.8618 117.672 15.39C117.955 14.9182 118.406 14.5408 119.026 14.2578C119.66 13.9747 120.509 13.8332 121.574 13.8332H124.971V15.2283H121.655C120.684 15.2283 120.031 15.39 119.694 15.7135C119.357 16.037 119.188 16.4279 119.188 16.8862C119.188 17.4119 119.397 17.8365 119.815 18.1601C120.233 18.4701 120.812 18.6251 121.554 18.6251C122.282 18.6251 122.915 18.4633 123.454 18.1398C124.007 17.8163 124.405 17.3445 124.647 16.7245L125.031 18.059C124.775 18.6925 124.324 19.198 123.677 19.5754C123.03 19.9393 122.214 20.1213 121.23 20.1213ZM135.862 20.1213C134.972 20.1213 134.157 19.9191 133.415 19.5147C132.688 19.0969 132.101 18.4836 131.656 17.6748C131.225 16.866 131.009 15.8551 131.009 14.6419C131.009 13.4288 131.218 12.4178 131.636 11.609C132.067 10.8003 132.647 10.1937 133.375 9.78932C134.116 9.38493 134.945 9.18274 135.862 9.18274C136.913 9.18274 137.843 9.41189 138.652 9.87019C139.461 10.3285 140.101 10.9688 140.573 11.791C141.045 12.5998 141.281 13.5501 141.281 14.6419C141.281 15.7338 141.045 16.6908 140.573 17.513C140.101 18.3353 139.461 18.9756 138.652 19.4339C137.843 19.8922 136.913 20.1213 135.862 20.1213ZM130.18 23.9225V9.28384H132.041V12.1752L131.919 14.6621L132.121 17.1491V23.9225H130.18ZM135.7 18.4229C136.388 18.4229 137.001 18.2679 137.54 17.9579C138.093 17.6478 138.524 17.2098 138.834 16.6436C139.158 16.064 139.319 15.3968 139.319 14.6419C139.319 13.8736 139.158 13.2131 138.834 12.6604C138.524 12.0943 138.093 11.6562 137.54 11.3462C137.001 11.0362 136.388 10.8812 135.7 10.8812C135.026 10.8812 134.413 11.0362 133.86 11.3462C133.321 11.6562 132.89 12.0943 132.566 12.6604C132.256 13.2131 132.101 13.8736 132.101 14.6419C132.101 15.3968 132.256 16.064 132.566 16.6436C132.89 17.2098 133.321 17.6478 133.86 17.9579C134.413 18.2679 135.026 18.4229 135.7 18.4229ZM148.734 20.1213C147.589 20.1213 146.578 19.8854 145.701 19.4136C144.839 18.9419 144.165 18.2948 143.68 17.4726C143.208 16.6504 142.972 15.7068 142.972 14.6419C142.972 13.577 143.201 12.6335 143.659 11.8112C144.131 10.989 144.771 10.3487 145.58 9.89041C146.402 9.41863 147.326 9.18274 148.35 9.18274C149.388 9.18274 150.305 9.41189 151.1 9.87019C151.895 10.3285 152.515 10.9755 152.96 11.8112C153.418 12.6335 153.648 13.5973 153.648 14.7026C153.648 14.7835 153.641 14.8778 153.627 14.9856C153.627 15.0935 153.621 15.1946 153.607 15.2889H144.488V13.8938H152.596L151.808 14.3791C151.821 13.6916 151.68 13.0783 151.383 12.5391C151.086 11.9999 150.675 11.5821 150.15 11.2855C149.637 10.9755 149.038 10.8205 148.35 10.8205C147.676 10.8205 147.076 10.9755 146.551 11.2855C146.025 11.5821 145.614 12.0067 145.317 12.5593C145.021 13.0985 144.872 13.7186 144.872 14.4195V14.743C144.872 15.4574 145.034 16.0977 145.358 16.6638C145.695 17.2165 146.16 17.6478 146.753 17.9579C147.346 18.2679 148.027 18.4229 148.795 18.4229C149.429 18.4229 150.001 18.3151 150.514 18.0994C151.039 17.8837 151.498 17.5602 151.889 17.1289L152.96 18.3825C152.475 18.9486 151.868 19.3799 151.14 19.6765C150.426 19.973 149.624 20.1213 148.734 20.1213ZM156.343 20V9.28384H158.203V12.1954L158.021 11.4675C158.318 10.7261 158.816 10.16 159.517 9.7691C160.218 9.37819 161.081 9.18274 162.105 9.18274V11.0631C162.024 11.0496 161.944 11.0429 161.863 11.0429C161.795 11.0429 161.728 11.0429 161.661 11.0429C160.623 11.0429 159.8 11.3529 159.194 11.973C158.587 12.593 158.284 13.4894 158.284 14.6621V20H156.343Z" fill="white"/>
<path d="M3 19.356H21V21.356H3V19.356ZM13 13.5276L19.0711 7.45646L20.4853 8.87068L12 17.356L3.51472 8.87068L4.92893 7.45646L11 13.5276V2.35596H13V13.5276Z" fill="white"/>
</svg>
