<svg width="213" height="215" viewBox="0 0 213 215" fill="none" xmlns="http://www.w3.org/2000/svg">
<path d="M75.8386 215C66.1782 215 57.9219 211.574 51.0698 204.722C44.2176 197.87 40.6792 189.726 40.4546 180.29C30.1202 178.493 21.4708 173.438 14.5063 165.125C7.54184 156.813 4.0596 147.04 4.0596 135.807C4.0596 131.856 4.56509 127.952 5.57606 124.095C6.58703 120.238 8.10349 116.616 10.1254 113.229C6.98019 109.185 4.62125 104.828 3.04863 100.157C1.47601 95.4861 0.689697 90.4076 0.689697 84.9216C0.689697 73.452 4.56509 63.5078 12.3159 55.0889C20.0667 46.6702 29.6709 41.8992 41.1286 40.7759C41.1286 39.8772 41.0724 38.9786 40.9601 38.0799C40.8477 37.1813 40.7916 36.1703 40.7916 35.047C40.7916 25.162 44.1615 16.8495 50.9013 10.1097C57.6411 3.36991 65.9535 0 75.8386 0C82.8031 0 88.4757 1.34796 92.8566 4.04389C97.2375 6.73981 101.787 10.896 106.505 16.5125C111.447 10.896 115.997 6.73981 120.153 4.04389C124.309 1.34796 129.982 0 137.171 0C146.513 0 154.577 3.42607 161.364 10.2782C168.151 17.1304 171.544 25.3866 171.544 35.047V38.2484C171.544 39.2594 171.432 40.1019 171.207 40.7759C182.665 41.6745 192.381 46.3362 200.357 54.761C208.332 63.1857 212.32 73.2393 212.32 84.9216C212.32 90.4076 211.421 95.5422 209.624 100.325C207.827 105.108 205.468 109.41 202.547 113.229C204.569 116.823 206.142 120.552 207.265 124.415C208.388 128.277 208.95 132.3 208.95 136.481C208.95 147.714 205.468 157.431 198.503 165.631C191.539 173.831 182.777 178.717 172.218 180.29C171.993 189.726 168.511 197.87 161.771 204.722C155.031 211.574 146.944 215 137.508 215C129.869 215 124.028 213.652 119.984 210.956C115.94 208.26 111.447 203.992 106.505 198.15C101.562 203.992 97.0128 208.26 92.8566 210.956C88.7004 213.652 83.0277 215 75.8386 215ZM110.212 34.036V180.964C110.212 188.36 112.87 194.646 118.186 199.822C123.503 204.998 129.992 207.586 137.652 207.586C144.97 207.586 151.212 205.003 156.379 199.835C161.547 194.668 164.355 188.602 164.804 181.638C157.39 181.413 150.538 179.616 144.248 176.246C137.957 172.876 132.79 168.271 128.746 162.429C127.847 161.755 127.502 160.932 127.709 159.958C127.915 158.985 128.486 158.123 129.42 157.375C130.319 156.701 131.298 156.467 132.357 156.674C133.416 156.881 134.234 157.451 134.812 158.386C138.107 163.403 142.413 167.185 147.73 169.731C153.047 172.277 158.626 173.55 164.467 173.55C175.026 173.55 183.844 170.012 190.921 162.935C197.998 155.858 201.536 147.04 201.536 136.481C201.536 133.411 201.199 130.453 200.525 127.607C199.851 124.761 198.84 121.878 197.492 118.958C193.673 122.328 189.225 124.967 184.147 126.877C179.07 128.787 173.746 129.741 168.174 129.741C167.062 129.741 166.166 129.4 165.487 128.719C164.807 128.037 164.467 127.138 164.467 126.023C164.467 124.907 164.807 124.013 165.487 123.339C166.166 122.665 167.062 122.328 168.174 122.328C178.508 122.328 187.214 118.733 194.291 111.544C201.368 104.355 204.906 95.4807 204.906 84.9216C204.906 74.937 201.424 66.375 194.459 59.2355C187.495 52.0963 179.07 48.302 169.185 47.8527C167.388 52.5705 164.692 56.6706 161.097 60.1528C157.503 63.6351 153.346 66.2748 148.629 68.0721C147.73 68.2968 146.815 68.2594 145.884 67.9599C144.954 67.6602 144.408 67.0236 144.248 66.0502C144.023 65.1515 144.023 64.2529 144.248 63.3542C144.472 62.4556 145.146 61.7816 146.27 61.3323C151.886 59.3103 156.267 55.8843 159.412 51.0541C162.558 46.2239 164.13 40.832 164.13 34.8785C164.13 27.3524 161.484 20.8934 156.192 15.5016C150.9 10.1097 144.553 7.41379 137.152 7.41379C129.751 7.41379 123.41 10.0019 118.131 15.178C112.851 20.3542 110.212 26.6402 110.212 34.036ZM102.798 180.964V34.036C102.798 26.6402 100.152 20.3542 94.8597 15.178C89.5674 10.0019 83.2207 7.41379 75.8197 7.41379C68.4185 7.41379 62.022 10.1142 56.6301 15.515C51.2383 20.9159 48.5424 27.4265 48.5424 35.047C48.5424 41.1129 50.1712 46.5047 53.4287 51.2226C56.6863 55.9404 61.011 59.198 66.4029 60.9953C67.5262 61.4446 68.3125 62.1186 68.7618 63.0172C69.2111 63.9159 69.3427 64.8389 69.1564 65.7863C68.6633 66.7339 67.9126 67.4079 66.9043 67.8082C65.896 68.2088 64.8302 68.1844 63.7069 67.7351C58.9891 65.9378 54.889 63.3542 51.4068 59.9843C47.9245 56.6144 45.1725 52.5705 43.1505 47.8527C33.4901 48.5266 25.2338 52.402 18.3817 59.4788C11.5296 66.5556 8.10349 75.0729 8.10349 85.0305C8.10349 95.517 11.6419 104.355 18.7187 111.544C25.7955 118.733 34.5011 122.328 44.8355 122.328C45.9475 122.328 46.8434 122.669 47.523 123.35C48.2026 124.032 48.5424 124.931 48.5424 126.046C48.5424 127.162 48.2026 128.056 47.523 128.73C46.8434 129.404 45.9475 129.741 44.8355 129.741C39.2639 129.741 33.9394 128.787 28.8621 126.877C23.7848 124.967 19.3365 122.328 15.5173 118.958C14.1693 121.878 13.1583 124.705 12.4844 127.439C11.8104 130.172 11.4734 133.074 11.4734 136.144C11.4734 146.703 15.0118 155.577 22.0886 162.766C29.1654 169.956 37.871 173.55 48.2054 173.55C54.3377 173.55 59.9708 172.202 65.1048 169.506C70.2387 166.81 74.603 163.103 78.1975 158.386C78.7751 157.676 79.5936 157.162 80.6529 156.842C81.7119 156.523 82.6907 156.644 83.5894 157.206C84.2634 157.992 84.7127 158.891 84.9373 159.902C85.162 160.913 84.9373 161.755 84.2634 162.429C79.9948 168.271 74.7153 172.876 68.4248 176.246C62.1343 179.616 55.3945 181.301 48.2054 181.301C48.43 188.49 51.2383 194.668 56.6301 199.835C62.022 205.003 68.3766 207.586 75.694 207.586C83.1303 207.586 89.5067 204.998 94.8233 199.822C100.14 194.646 102.798 188.36 102.798 180.964Z" fill="#9B9BF2"/>
<circle cx="108.527" cy="107.838" r="57.2884" fill="#0C0C12" stroke="white" stroke-width="6.73981"/>
</svg>
