<svg width="58" height="58" viewBox="0 0 58 58" fill="none" xmlns="http://www.w3.org/2000/svg">
<path d="M9.74558 7.24414H48.3511C49.6837 7.24414 50.7639 8.32442 50.7639 9.65698V48.2624C50.7639 49.595 49.6837 50.6752 48.3511 50.6752H9.74558C8.41299 50.6752 7.33274 49.595 7.33274 48.2624V9.65698C7.33274 8.32442 8.41299 7.24414 9.74558 7.24414ZM12.1584 12.0698V45.8496H45.9382V12.0698H12.1584ZM41.8386 38.467L44.1407 40.7691V40.8902H32.2666V40.7691L34.6898 38.467C34.932 38.2248 35.0532 37.9823 35.0532 37.6189V23.3221C35.0532 22.7163 35.0532 21.8682 35.1745 21.1412L27.1777 41.1325H27.0563L18.8172 22.7163C18.6961 22.2317 18.5749 22.2317 18.4537 21.9893V34.1053C18.3326 34.9534 18.4537 35.6804 18.8172 36.4072L22.0887 40.7691V40.8902H13.3648V40.7691L16.6363 36.286C16.9998 35.559 17.1209 34.7109 16.9998 33.9842V20.6566C16.9998 20.0508 16.8786 19.3239 16.3939 18.8392L14.213 15.8102V15.6891H22.6945L29.722 31.3185L35.9015 15.6891H44.1407V15.8102L41.8386 18.4757C41.5961 18.7181 41.4749 19.0815 41.4749 19.3239V37.74C41.4749 37.9823 41.5961 38.3459 41.8386 38.467Z" fill="white"/>
</svg>
