<svg width="32" height="32" viewBox="0 0 32 32" fill="none" xmlns="http://www.w3.org/2000/svg">
<path d="M11.3631 32C9.90234 32 8.65393 31.4901 7.61783 30.4702C6.58174 29.4504 6.04671 28.2382 6.01274 26.8339C4.45011 26.5664 3.14225 25.814 2.08917 24.5768C1.03609 23.3396 0.509554 21.8851 0.509554 20.2132C0.509554 19.6251 0.585987 19.044 0.738854 18.4699C0.89172 17.8958 1.12102 17.3567 1.42675 16.8527C0.951168 16.2508 0.59448 15.6023 0.356688 14.9071C0.118896 14.2119 0 13.456 0 12.6395C0 10.9324 0.585987 9.45232 1.75796 8.19927C2.92994 6.94626 4.38217 6.23615 6.11465 6.06897C6.11465 5.93521 6.10616 5.80146 6.08917 5.66771C6.07219 5.53396 6.06369 5.38349 6.06369 5.2163C6.06369 3.74504 6.57325 2.50784 7.59236 1.5047C8.61147 0.501567 9.86837 0 11.3631 0C12.4161 0 13.2739 0.200627 13.9363 0.601881C14.5987 1.00313 15.2866 1.62173 16 2.45768C16.7473 1.62173 17.4352 1.00313 18.0637 0.601881C18.6921 0.200627 19.5499 0 20.6369 0C22.0495 0 23.2689 0.509927 24.2951 1.52978C25.3213 2.54963 25.8344 3.77847 25.8344 5.2163V5.69279C25.8344 5.84326 25.8174 5.96865 25.7834 6.06897C27.5159 6.20272 28.9851 6.89655 30.1911 8.15047C31.397 9.40439 32 10.9007 32 12.6395C32 13.456 31.8641 14.2202 31.5924 14.9322C31.3206 15.6441 30.9639 16.2842 30.5223 16.8527C30.828 17.3877 31.0658 17.9426 31.2357 18.5176C31.4055 19.0925 31.4904 19.6911 31.4904 20.3135C31.4904 21.9854 30.9639 23.4316 29.9108 24.652C28.8577 25.8725 27.5329 26.5998 25.9363 26.8339C25.9023 28.2382 25.3758 29.4504 24.3567 30.4702C23.3376 31.4901 22.1147 32 20.6879 32C19.5329 32 18.6497 31.7994 18.0382 31.3981C17.4268 30.9969 16.7473 30.3615 16 29.4922C15.2527 30.3615 14.5648 30.9969 13.9363 31.3981C13.3079 31.7994 12.4501 32 11.3631 32ZM16.5605 5.06583V26.9342C16.5605 28.0349 16.9624 28.9705 17.7663 29.7409C18.5702 30.5113 19.5514 30.8966 20.7098 30.8966C21.8162 30.8966 22.7601 30.512 23.5414 29.7429C24.3227 28.9739 24.7473 28.0711 24.8153 27.0345C23.6943 27.001 22.6582 26.7335 21.707 26.232C20.7558 25.7304 19.9745 25.0449 19.3631 24.1755C19.2272 24.0752 19.1749 23.9526 19.2062 23.8077C19.2375 23.6628 19.3237 23.5346 19.465 23.4232C19.6008 23.3229 19.7489 23.2881 19.909 23.3189C20.0692 23.3497 20.1929 23.4346 20.2803 23.5737C20.7785 24.3204 21.4296 24.8833 22.2335 25.2623C23.0375 25.6412 23.8811 25.8307 24.7643 25.8307C26.3609 25.8307 27.6943 25.3041 28.7643 24.2508C29.8344 23.1975 30.3694 21.8851 30.3694 20.3135C30.3694 19.8565 30.3185 19.4162 30.2166 18.9927C30.1147 18.5691 29.9618 18.14 29.758 17.7053C29.1805 18.2069 28.5079 18.5998 27.7401 18.884C26.9724 19.1682 26.1673 19.3103 25.3248 19.3103C25.1567 19.3103 25.0212 19.2596 24.9185 19.1581C24.8157 19.0566 24.7643 18.9229 24.7643 18.7569C24.7643 18.5908 24.8157 18.4577 24.9185 18.3574C25.0212 18.2571 25.1567 18.2069 25.3248 18.2069C26.8875 18.2069 28.2038 17.6719 29.2739 16.6019C30.3439 15.5319 30.879 14.2111 30.879 12.6395C30.879 11.1534 30.3524 9.87907 29.2994 8.81645C28.2463 7.75386 26.9724 7.18913 25.4777 7.12226C25.2059 7.82445 24.7983 8.43469 24.2548 8.95298C23.7113 9.47126 23.0828 9.86416 22.3694 10.1317C22.2335 10.1651 22.0952 10.1595 21.9545 10.115C21.8138 10.0704 21.7313 9.97561 21.707 9.83072C21.673 9.69697 21.673 9.56322 21.707 9.42947C21.741 9.29572 21.8429 9.1954 22.0127 9.12853C22.862 8.82759 23.5244 8.31766 24 7.59875C24.4756 6.87983 24.7134 6.07732 24.7134 5.19122C24.7134 4.07106 24.3133 3.10972 23.5131 2.30721C22.7128 1.5047 21.7532 1.10345 20.6341 1.10345C19.515 1.10345 18.5563 1.48865 17.758 2.25906C16.9597 3.02947 16.5605 3.96506 16.5605 5.06583ZM15.4395 26.9342V5.06583C15.4395 3.96506 15.0394 3.02947 14.2392 2.25906C13.4389 1.48865 12.4793 1.10345 11.3602 1.10345C10.2411 1.10345 9.27389 1.50537 8.4586 2.30922C7.64331 3.11306 7.23567 4.08209 7.23567 5.2163C7.23567 6.11912 7.48195 6.92163 7.97452 7.62382C8.46709 8.32602 9.12102 8.81087 9.93631 9.07837C10.1062 9.14525 10.2251 9.24556 10.293 9.37931C10.3609 9.51306 10.3808 9.65044 10.3527 9.79145C10.2781 9.93249 10.1646 10.0328 10.0121 10.0924C9.85967 10.152 9.69851 10.1484 9.52866 10.0815C8.81529 9.814 8.19533 9.42947 7.66879 8.9279C7.14225 8.42633 6.72611 7.82445 6.42038 7.12226C4.95966 7.22257 3.71125 7.79937 2.67516 8.85266C1.63907 9.90596 1.12102 11.1736 1.12102 12.6557C1.12102 14.2165 1.65605 15.5319 2.72611 16.6019C3.79618 17.6719 5.11253 18.2069 6.67516 18.2069C6.84331 18.2069 6.97877 18.2576 7.08153 18.3591C7.18429 18.4606 7.23567 18.5944 7.23567 18.7604C7.23567 18.9264 7.18429 19.0596 7.08153 19.1599C6.97877 19.2602 6.84331 19.3103 6.67516 19.3103C5.8327 19.3103 5.0276 19.1682 4.25987 18.884C3.49214 18.5998 2.81953 18.2069 2.24204 17.7053C2.03822 18.14 1.88535 18.5608 1.78344 18.9676C1.68153 19.3744 1.63057 19.8063 1.63057 20.2633C1.63057 21.8349 2.16561 23.1557 3.23567 24.2257C4.30573 25.2957 5.62208 25.8307 7.18471 25.8307C8.11197 25.8307 8.96374 25.6301 9.74003 25.2288C10.5163 24.8276 11.1762 24.2759 11.7197 23.5737C11.8071 23.4681 11.9308 23.3915 12.091 23.344C12.2511 23.2965 12.3992 23.3145 12.535 23.3981C12.6369 23.5152 12.7049 23.6489 12.7389 23.7994C12.7728 23.9498 12.7389 24.0752 12.6369 24.1755C11.9915 25.0449 11.1932 25.7304 10.242 26.232C9.29087 26.7335 8.27176 26.9843 7.18471 26.9843C7.21868 28.0543 7.64331 28.9739 8.4586 29.7429C9.27389 30.512 10.2348 30.8966 11.3412 30.8966C12.4656 30.8966 13.4298 30.5113 14.2337 29.7409C15.0376 28.9705 15.4395 28.0349 15.4395 26.9342Z" fill="#9B9BF2"/>
<path d="M24.7611 16.0502C24.7611 20.63 20.9862 24.3618 16.3057 24.3618C11.6252 24.3618 7.85032 20.63 7.85032 16.0502C7.85032 11.4704 11.6252 7.73853 16.3057 7.73853C20.9862 7.73853 24.7611 11.4704 24.7611 16.0502Z" fill="#0A0A10" stroke="white" stroke-width="1.43312"/>
</svg>
